<?xml version="1.0" encoding="UTF-8" standalone="no"?>
<!-- Created with Inkscape (http://www.inkscape.org/) -->

<svg
   width="242.04442mm"
   height="241.1637mm"
   viewBox="0 0 242.04442 241.1637"
   version="1.1"
   id="svg5"
   xml:space="preserve"
   inkscape:version="1.2.2 (732a01da63, 2022-12-09)"
   sodipodi:docname="logopoli.svg"
   xmlns:inkscape="http://www.inkscape.org/namespaces/inkscape"
   xmlns:sodipodi="http://sodipodi.sourceforge.net/DTD/sodipodi-0.dtd"
   xmlns:xlink="http://www.w3.org/1999/xlink"
   xmlns="http://www.w3.org/2000/svg"
   xmlns:svg="http://www.w3.org/2000/svg"><sodipodi:namedview
     id="namedview7"
     pagecolor="#505050"
     bordercolor="#eeeeee"
     borderopacity="1"
     inkscape:showpageshadow="0"
     inkscape:pageopacity="0"
     inkscape:pagecheckerboard="0"
     inkscape:deskcolor="#505050"
     inkscape:document-units="mm"
     showgrid="false"
     inkscape:lockguides="true"
     inkscape:zoom="0.73851712"
     inkscape:cx="714.26916"
     inkscape:cy="507.77428"
     inkscape:window-width="1889"
     inkscape:window-height="1003"
     inkscape:window-x="7"
     inkscape:window-y="30"
     inkscape:window-maximized="1"
     inkscape:current-layer="layer1" /><defs
     id="defs2"><g
       id="g263"><g
         id="glyph-0-0"><path
           d="m -32.953125,-30.203125 -0.578125,21.390625 29.4375,0.796875 0.578125,-21.390625 z m -4.203125,-4.28125 38.0625,1.03125 L 0.09375,-3.71875 -37.96875,-4.75 Z m 0,0"
           id="path9" /></g><g
         id="glyph-0-1"><path
           d="m -37.296875,-18.140625 c -0.03125,1.09375 0.402344,1.65625 1.296875,1.6875 l 22.296875,0.59375 c 3.117187,0.09375 5.28125,-0.84375 6.5,-2.8125 1.21875,-1.976563 1.886719,-4.898438 2,-8.765625 0.105469,-3.863281 -0.398438,-6.816406 -1.515625,-8.859375 C -7.832031,-38.335938 -9.945313,-39.40625 -13.0625,-39.5 l -22.296875,-0.59375 c -0.894531,-0.03125 -1.363281,0.699219 -1.40625,2.1875 l -1.34375,-0.03125 0.328125,-11.90625 1.34375,0.03125 c -0.03125,1.199219 0.402344,1.8125 1.296875,1.84375 l 21.921875,0.59375 c 2.929687,0.07422 5.335937,0.558594 7.21875,1.453125 1.875,0.898437 3.367187,2.203125 4.46875,3.921875 1.09375,1.710937 1.800781,3.824219 2.125,6.34375 0.332031,2.511719 0.453125,5.402344 0.359375,8.671875 -0.09375,3.273437 -0.375,6.152344 -0.84375,8.640625 -0.457031,2.492187 -1.273438,4.5625 -2.453125,6.21875 -1.1875,1.65625 -2.742188,2.882812 -4.671875,3.671875 -1.9375,0.792969 -4.367188,1.152344 -7.296875,1.078125 L -36.234375,-7.96875 C -37.128906,-8 -37.59375,-7.320313 -37.625,-5.9375 l -1.34375,-0.03125 0.328125,-12.203125 z m 0,0"
           id="path12" /></g><g
         id="glyph-1-0"><path
           d="m -27.59375,-35.1875 -4.0625,21.015625 28.921875,5.609375 4.0625,-21.015625 z m -3.4375,-4.90625 37.390625,7.234375 -5.65625,29.203125 -37.390625,-7.234375 z m 0,0"
           id="path15" /></g><g
         id="glyph-1-1"><path
           d="M -0.171875,-6.171875 C 0.00390625,-7.035156 -0.269531,-7.539063 -1,-7.6875 l -27.3125,-5.28125 c -0.726563,-0.144531 -1.179688,0.214844 -1.359375,1.078125 l -1.3125,-0.25 2.078125,-10.71875 1.3125,0.25 c -0.0078,0.34375 0.07813,0.539062 0.265625,0.578125 0.25,0.04297 1.015625,-0.367188 2.296875,-1.234375 l 21.9375,-13.921875 -19.796875,-3.828125 c -0.726563,-0.144531 -1.1875,0.265625 -1.375,1.234375 l -1.3125,-0.25 1.71875,-8.90625 1.3125,0.25 c -0.164063,0.875 0.117187,1.386719 0.84375,1.53125 l 27.3125,5.28125 c 0.726563,0.148437 1.175781,-0.21875 1.34375,-1.09375 l 1.3125,0.25 -1.828125,9.5 -1.3125,-0.25 c 0.0625,-0.34375 -0.027344,-0.539063 -0.265625,-0.59375 -0.210937,-0.03906 -0.601562,0.121094 -1.171875,0.484375 -0.574219,0.367187 -1.234375,0.78125 -1.984375,1.25 L -21.0625,-17.9375 l 21.25,4.109375 c 0.726563,0.148437 1.191406,-0.289063 1.390625,-1.3125 l 1.3125,0.25 -1.75,8.96875 z m 0,0"
           id="path18" /></g><g
         id="glyph-2-0"><path
           d="m -23.171875,-38.234375 -6.546875,20.375 28.03125,9.015625 6.546875,-20.375 z M -26,-43.515625 l 36.25,11.65625 -9.109375,28.3125 -36.25,-11.65625 z m 0,0"
           id="path21" /></g><g
         id="glyph-2-1"><path
           d="m 0.765625,-6.765625 c 0.25,-0.769531 0.335938,-1.320313 0.265625,-1.65625 -0.074219,-0.332031 -0.296875,-0.5625 -0.671875,-0.6875 L -26.125,-17.625 c -0.375,-0.125 -0.6875,-0.07031 -0.9375,0.15625 -0.257813,0.230469 -0.515625,0.730469 -0.765625,1.5 l -1.265625,-0.40625 3.46875,-10.78125 1.265625,0.40625 c -0.425781,1.324219 -0.285156,2.101562 0.421875,2.328125 l 26.484375,8.515625 c 0.695313,0.230469 1.257813,-0.316406 1.6875,-1.640625 l 1.28125,0.40625 -3.46875,10.78125 z m 0,0"
           id="path24" /></g><g
         id="glyph-3-0"><path
           d="m -18.96875,-40.46875 -8.6875,19.5625 26.921875,11.953125 8.6875,-19.5625 z m -2.234375,-5.578125 34.796875,15.46875 -12.078125,27.1875 -34.796875,-15.46875 z m 0,0"
           id="path27" /></g><g
         id="glyph-3-1"><path
           d="m -12.625,-48.90625 c -0.28125,0.625 -0.0039,1.429687 0.828125,2.40625 l 17.53125,19.671875 c 0.957031,1.023437 1.582031,1.746094 1.875,2.171875 0.300781,0.429687 0.5625,0.695312 0.78125,0.796875 0.28125,0.117187 0.664063,-0.203125 1.15625,-0.953125 L 10.78125,-24.265625 6.21875,-14 4.984375,-14.546875 C 5.003906,-14.816406 5,-15.078125 4.96875,-15.328125 c -0.023437,-0.25 -0.148437,-0.425781 -0.375,-0.53125 -0.230469,-0.101563 -0.65625,-0.113281 -1.28125,-0.03125 -0.625,0.07422 -1.464844,0.121094 -2.515625,0.140625 L -26,-15.296875 c -0.488281,0 -0.910156,0.101562 -1.265625,0.296875 -0.363281,0.1875 -0.609375,0.417969 -0.734375,0.6875 l -1.21875,-0.53125 4.265625,-9.59375 1.21875,0.53125 c -0.238281,0.542969 -0.0625,0.945312 0.53125,1.203125 0.3125,0.148437 0.808594,0.226562 1.484375,0.234375 0.679687,0 1.421875,-0.0039 2.234375,-0.01563 l 20.40625,-0.296875 -13.15625,-14.703125 c -0.863281,-0.988281 -1.503906,-1.738281 -1.921875,-2.25 -0.425781,-0.519531 -0.8125,-0.828125 -1.15625,-0.921875 -0.5625,-0.195313 -0.984375,0.01563 -1.265625,0.640625 l -1.21875,-0.53125 3.953125,-8.890625 z m 0,0"
           id="path30" /></g><g
         id="glyph-4-0"><path
           d="m -13.4375,-42.640625 -11.203125,18.25 25.09375,15.421875 11.203125,-18.25 z m -1.5,-5.796875 32.453125,19.921875 -15.5625,25.34375 L -30.5,-23.09375 Z m 0,0"
           id="path33" /></g><g
         id="glyph-4-1"><path
           d="m -3.78125,-43.171875 c -0.789063,-0.5 -1.59375,-0.08594 -2.40625,1.234375 l -9.484375,15.453125 6.328125,3.90625 5.984375,-9.765625 c 0.449219,-0.71875 0.726562,-1.28125 0.828125,-1.6875 0.105469,-0.40625 -0.078125,-0.75 -0.546875,-1.03125 l 0.6875,-1.125 6.71875,4.109375 -0.78125,1.265625 c -0.375,-0.414063 -0.761719,-0.421875 -1.15625,-0.01563 -0.398437,0.40625 -0.851562,1.03125 -1.359375,1.875 l -5.6875,9.25 7.484375,4.59375 9.953125,-16.21875 c 0.3125,-0.507813 0.453125,-1.003906 0.421875,-1.484375 -0.02344,-0.488281 -0.21875,-0.847656 -0.59375,-1.078125 L 13.3125,-35.03125 19.953125,-30.953125 19.25,-29.8125 c -0.367187,-0.226563 -0.679687,-0.1875 -0.9375,0.125 -0.25,0.3125 -0.53125,0.726562 -0.84375,1.234375 L 3.1875,-5.1875 2.046875,-5.890625 C 2.179688,-6.109375 2.238281,-6.367188 2.21875,-6.671875 2.207031,-6.972656 2.03125,-7.226563 1.6875,-7.4375 L -22.015625,-22 c -0.332031,-0.195313 -0.640625,-0.234375 -0.921875,-0.109375 -0.28125,0.117187 -0.488281,0.28125 -0.625,0.5 l -1.125,-0.703125 13.8125,-22.5 c 0.8125,-1.320313 0.835937,-2.21875 0.0625,-2.6875 l 0.6875,-1.125 7.03125,4.328125 z m 0,0"
           id="path36" /></g><g
         id="glyph-5-0"><path
           d="M -7.4375,-44.078125 -21.046875,-27.5625 1.6875,-8.828125 15.296875,-25.34375 Z M -8.109375,-50.03125 21.28125,-25.828125 2.359375,-2.875 -27.03125,-27.078125 Z m 0,0"
           id="path39" /></g><g
         id="glyph-5-1"><path
           d="m 2.296875,-32.046875 c 3.082031,-3.738281 3.441406,-6.582031 1.078125,-8.53125 -0.960937,-0.789063 -2.089844,-0.960938 -3.390625,-0.515625 -1.300781,0.4375 -2.75,1.625 -4.34375,3.5625 l -7.484375,9.09375 6.65625,5.484375 z M -8.515625,-41.125 c 2.8125,-3.40625 5.574219,-5.597656 8.28125,-6.578125 2.695313,-0.988281 5.40625,-0.363281 8.125,1.875 1.03125,0.855469 1.785156,1.808594 2.265625,2.859375 0.488281,1.042969 0.769531,2.121094 0.84375,3.234375 0.07031,1.117187 -0.02734,2.210937 -0.296875,3.28125 -0.261719,1.0625 -0.625,2.074219 -1.09375,3.03125 l 12.84375,1.125 c 0.675781,0.04297 1.269531,-0.03125 1.78125,-0.21875 0.507813,-0.1875 0.992188,-0.445313 1.453125,-0.78125 l 1.03125,0.859375 -7.234375,8.78125 -1.03125,-0.859375 c 0.40625,-0.488281 0.429688,-0.875 0.07813,-1.15625 -0.375,-0.3125 -1.199219,-0.515625 -2.46875,-0.609375 l -10.515625,-1.046875 -6.578125,7.984375 8.21875,6.765625 c 0.300781,0.25 0.625,0.308594 0.96875,0.171875 0.34375,-0.144531 0.601563,-0.332031 0.78125,-0.5625 L 9.96875,-12.109375 3.6875,-4.46875 2.65625,-5.328125 c 0.570313,-0.695313 0.570313,-1.28125 0,-1.75 l -21.46875,-17.6875 c -0.582031,-0.46875 -1.160156,-0.351563 -1.734375,0.34375 l -1.015625,-0.84375 z m 0,0"
           id="path42" /></g><g
         id="glyph-6-0"><path
           d="m -1.296875,-44.6875 -15.75,14.5 19.9375,21.671875 15.75,-14.5 z M -1.15625,-50.671875 24.625,-22.65625 2.734375,-2.515625 -23.046875,-30.53125 Z m 0,0"
           id="path45" /></g><g
         id="glyph-6-1"><path
           d="m -1.625,-13.96875 c 0.136719,0.148437 0.273437,0.3125 0.40625,0.5 0.136719,0.179687 0.289062,0.355469 0.453125,0.53125 0.5,0.554687 1.300781,0.742187 2.40625,0.5625 1.113281,-0.1875 2.296875,-0.566406 3.546875,-1.140625 1.257813,-0.582031 2.457031,-1.226563 3.59375,-1.9375 1.132813,-0.707031 1.972656,-1.3125 2.515625,-1.8125 0.507813,-0.46875 1.101563,-1.082031 1.78125,-1.84375 0.6875,-0.757813 1.285156,-1.59375 1.796875,-2.5 0.507813,-0.914063 0.828125,-1.816406 0.953125,-2.703125 0.125,-0.894531 -0.136719,-1.691406 -0.78125,-2.390625 -0.730469,-0.800781 -1.710937,-0.972656 -2.9375,-0.515625 -1.21875,0.460937 -2.601562,1.210937 -4.140625,2.25 -1.542969,1.042969 -3.195312,2.1875 -4.953125,3.4375 -1.75,1.242187 -3.503906,2.257812 -5.265625,3.046875 -1.769531,0.792969 -3.5,1.167969 -5.1875,1.125 -1.6875,-0.03906 -3.253906,-0.847656 -4.703125,-2.421875 -2.132813,-2.332031 -2.875,-5.078125 -2.21875,-8.234375 0.648437,-3.164063 2.726562,-6.359375 6.234375,-9.578125 1.710937,-1.582031 3.304687,-2.800781 4.78125,-3.65625 1.480469,-0.851563 2.789062,-1.5 3.921875,-1.9375 1.144531,-0.445313 2.109375,-0.773438 2.890625,-0.984375 0.789063,-0.21875 1.3125,-0.441406 1.5625,-0.671875 0.289063,-0.269531 0.460938,-0.515625 0.515625,-0.734375 0.0625,-0.226563 0.148438,-0.5 0.265625,-0.8125 l 1.171875,0.0625 2,7.65625 -1.296875,0.578125 c -0.242187,-0.1875 -0.480469,-0.375 -0.71875,-0.5625 -0.242187,-0.1875 -0.605469,-0.257813 -1.09375,-0.21875 -1.292969,0.05469 -2.90625,0.570312 -4.84375,1.546875 -1.9375,0.96875 -3.851563,2.328125 -5.75,4.078125 -0.738281,0.679687 -1.390625,1.359375 -1.953125,2.046875 -0.570313,0.6875 -1.007813,1.375 -1.3125,2.0625 -0.3125,0.6875 -0.453125,1.34375 -0.421875,1.96875 0.023437,0.617187 0.265625,1.179687 0.734375,1.6875 0.742187,0.804687 1.714844,0.964844 2.921875,0.484375 1.210937,-0.476563 2.585937,-1.234375 4.125,-2.265625 1.53125,-1.039063 3.171875,-2.179688 4.921875,-3.421875 1.75,-1.238281 3.519531,-2.242188 5.3125,-3.015625 1.789063,-0.769531 3.550781,-1.109375 5.28125,-1.015625 1.726563,0.08594 3.332031,0.929687 4.8125,2.53125 1.476563,1.605469 2.296875,3.28125 2.453125,5.03125 0.15625,1.742187 -0.07813,3.445312 -0.703125,5.109375 -0.625,1.65625 -1.5625,3.21875 -2.8125,4.6875 -1.242187,1.46875 -2.480469,2.777344 -3.71875,3.921875 -1.25,1.148437 -2.59375,2.167969 -4.03125,3.0625 -1.4375,0.886719 -2.796875,1.632812 -4.078125,2.234375 -1.28125,0.605469 -2.398437,1.09375 -3.34375,1.46875 -0.949219,0.367187 -1.496094,0.617187 -1.640625,0.75 C 1.566406,-5.679688 1.445313,-5.375 1.46875,-5 l -1.265625,0.171875 -3.125,-8.453125 z m 0,0"
           id="path48" /></g><g
         id="glyph-7-0"><path
           d="m 3.421875,-44.578125 -17.1875,12.75 17.546875,23.65625 17.1875,-12.75 z M 4.1875,-50.515625 26.875,-19.9375 2.984375,-2.21875 l -22.6875,-30.578125 z m 0,0"
           id="path51" /></g><g
         id="glyph-7-1"><path
           d="m 4.578125,-5.0625 c 0.644531,-0.476563 1.03125,-0.875 1.15625,-1.1875 0.132813,-0.320313 0.082031,-0.640625 -0.15625,-0.953125 l -16.5625,-22.34375 c -0.238281,-0.3125 -0.523438,-0.453125 -0.859375,-0.421875 -0.34375,0.03125 -0.835938,0.289062 -1.484375,0.765625 l -0.78125,-1.0625 L -5.03125,-37 -4.25,-35.9375 c -1.113281,0.824219 -1.445313,1.539062 -1,2.140625 l 16.5625,22.34375 c 0.445313,0.59375 1.226563,0.480469 2.34375,-0.34375 L 14.453125,-10.71875 5.375,-3.984375 Z m 0,0"
           id="path54" /></g><g
         id="glyph-8-0"><path
           d="m 8.40625,-43.90625 -18.515625,10.75 14.765625,25.46875 18.515625,-10.75 z m 1.4375,-5.828125 19.109375,32.9375 -25.734375,14.9375 -19.109375,-32.9375 z m 0,0"
           id="path57" /></g><g
         id="glyph-8-1"><path
           d="m 17.5625,-16.546875 c 1.332031,-0.769531 2.539063,-1.597656 3.625,-2.484375 1.09375,-0.894531 1.894531,-1.9375 2.40625,-3.125 0.519531,-1.195313 0.679688,-2.582031 0.484375,-4.15625 -0.199219,-1.570313 -0.917969,-3.429688 -2.15625,-5.578125 -1.25,-2.144531 -2.5,-3.671875 -3.75,-4.578125 -1.242187,-0.914063 -2.496094,-1.421875 -3.765625,-1.515625 -1.261719,-0.09375 -2.53125,0.132812 -3.8125,0.671875 -1.28125,0.542969 -2.589844,1.199219 -3.921875,1.96875 l -8.375,4.859375 L 9.1875,-11.6875 Z M 3.640625,-3.65625 c 0.976563,-0.570313 1.28125,-1.179688 0.90625,-1.828125 L -9.40625,-29.53125 c -0.375,-0.65625 -1.050781,-0.695313 -2.03125,-0.125 l -0.671875,-1.140625 17.875,-10.375 c 2.53125,-1.46875 4.929688,-2.320313 7.203125,-2.5625 2.28125,-0.238281 4.367188,-0.03125 6.265625,0.625 1.894531,0.65625 3.597656,1.679687 5.109375,3.0625 1.519531,1.375 2.804688,2.964844 3.859375,4.765625 1.039063,1.804687 1.796875,3.703125 2.265625,5.703125 0.476563,1.992187 0.535156,3.964844 0.171875,5.921875 -0.367187,1.949219 -1.1875,3.839844 -2.46875,5.671875 -1.28125,1.835937 -3.1875,3.484375 -5.71875,4.953125 L 4.3125,-2.5 Z m 0,0"
           id="path60" /></g><g
         id="glyph-9-0"><path
           d="M 14.40625,-42.328125 -5.421875,-34.25 5.6875,-6.96875 25.515625,-15.046875 Z M 16.640625,-47.875 31,-12.609375 3.4375,-1.40625 -10.921875,-36.671875 Z m 0,0"
           id="path63" /></g><g
         id="glyph-9-1"><path
           d="m 18.875,-22.453125 -10.28125,-9.3125 -0.171875,13.5625 z M 0.53125,-1.671875 C 1.039063,-1.984375 1.378906,-2.425781 1.546875,-3 1.710938,-3.570313 1.816406,-4.082031 1.859375,-4.53125 L 3,-31.09375 c 0.00781,-0.75 0.015625,-1.347656 0.015625,-1.796875 0.00781,-0.457031 -0.058594,-0.875 -0.203125,-1.25 -0.117187,-0.28125 -0.246094,-0.425781 -0.390625,-0.4375 -0.148437,-0.01953 -0.304687,-0.05469 -0.46875,-0.109375 l -0.5,-1.21875 10.40625,-4.234375 0.5,1.21875 c -0.117187,0.167969 -0.246094,0.304687 -0.390625,0.40625 -0.136719,0.105469 -0.136719,0.320312 0,0.640625 0.101563,0.273437 0.335938,0.5625 0.703125,0.875 0.375,0.304687 0.773438,0.65625 1.203125,1.0625 l 20.703125,18.890625 c 0.40625,0.324219 0.78125,0.523437 1.125,0.59375 0.34375,0.07422 0.695313,0.08594 1.0625,0.03125 l 0.5,1.25 -9.78125,3.984375 -0.421875,-1.03125 c 0.226563,-0.09375 0.4375,-0.257813 0.625,-0.5 0.195313,-0.25 0.222656,-0.554688 0.07813,-0.921875 -0.117187,-0.28125 -0.265625,-0.507813 -0.453125,-0.6875 -0.179687,-0.1875 -0.40625,-0.4375 -0.6875,-0.75 l -3.46875,-3.1875 -14.75,6 -0.40625,4.5 C 7.976563,-7.304688 7.96875,-6.90625 7.96875,-6.5625 c 0,0.335937 0.046875,0.621094 0.140625,0.859375 0.144531,0.367187 0.351563,0.546875 0.625,0.546875 0.269531,-0.00781 0.613281,-0.097656 1.03125,-0.265625 l 0.5,1.25 -9.234375,3.75 z m 0,0"
           id="path66" /></g><g
         id="glyph-10-0"><path
           d="m 20.15625,-39.890625 -20.75,5.234375 7.203125,28.546875 20.75,-5.234375 z m 3,-5.203125 9.296875,36.921875 L 3.609375,-0.90625 -5.6875,-37.828125 Z m 0,0"
           id="path69" /></g><g
         id="glyph-10-1"><path
           d="m 21.4375,-11.078125 c 1.5,-0.375 2.890625,-0.835938 4.171875,-1.390625 1.289063,-0.5625 2.347656,-1.34375 3.171875,-2.34375 0.820313,-1.007813 1.351563,-2.296875 1.59375,-3.859375 0.25,-1.5625 0.07031,-3.546875 -0.53125,-5.953125 -0.605469,-2.40625 -1.382812,-4.21875 -2.328125,-5.4375 -0.949219,-1.21875 -2.015625,-2.046875 -3.203125,-2.484375 -1.1875,-0.445313 -2.476562,-0.582031 -3.859375,-0.40625 -1.386719,0.167969 -2.828125,0.4375 -4.328125,0.8125 l -9.375,2.375 5.3125,21.0625 z M 4.5,-2.515625 c 1.101563,-0.28125 1.566406,-0.78125 1.390625,-1.5 l -6.796875,-26.96875 c -0.1875,-0.726563 -0.832031,-0.953125 -1.9375,-0.671875 L -3.171875,-32.953125 16.875,-38 c 2.84375,-0.71875 5.390625,-0.875 7.640625,-0.46875 2.25,0.398437 4.191406,1.171875 5.828125,2.328125 1.644531,1.148437 3.003906,2.59375 4.078125,4.34375 1.082031,1.75 1.878906,3.636719 2.390625,5.65625 0.507813,2.023437 0.71875,4.054687 0.625,6.09375 -0.09375,2.042969 -0.585937,3.953125 -1.46875,5.734375 -0.886719,1.773437 -2.199219,3.367187 -3.9375,4.78125 -1.742187,1.40625 -4.027344,2.46875 -6.859375,3.1875 l -20.34375,5.125 z m 0,0"
           id="path72" /></g><g
         id="glyph-11-0"><path
           d="M 25.5,-36.71875 4.21875,-34.40625 7.375,-5.125 28.65625,-7.4375 Z m 3.6875,-4.734375 4.09375,37.859375 -29.578125,3.1875 -4.09375,-37.859375 z m 0,0"
           id="path75" /></g><g
         id="glyph-11-1"><path
           d="m 31.828125,-29.40625 c -0.09375,-0.9375 -0.90625,-1.320313 -2.4375,-1.15625 l -18.03125,1.953125 0.796875,7.390625 11.375,-1.234375 c 0.84375,-0.08203 1.453125,-0.207031 1.828125,-0.375 0.382813,-0.164063 0.550781,-0.515625 0.5,-1.046875 l 1.3125,-0.15625 0.84375,7.828125 -1.46875,0.171875 c 0.08203,-0.5625 -0.152344,-0.875 -0.703125,-0.9375 -0.554687,-0.07031 -1.320312,-0.05469 -2.296875,0.04687 L 12.75,-15.75 13.6875,-7.015625 32.609375,-9.0625 c 0.582031,-0.0625 1.054688,-0.25 1.421875,-0.5625 0.375,-0.320313 0.539063,-0.695313 0.5,-1.125 l 1.3125,-0.140625 0.84375,7.75 L 35.375,-3 c -0.05469,-0.4375 -0.28125,-0.660156 -0.6875,-0.671875 -0.40625,-0.00781 -0.902344,0.015625 -1.484375,0.078125 L 6.0625,-0.65625 5.921875,-2 C 6.171875,-2.03125 6.40625,-2.140625 6.625,-2.328125 6.851563,-2.523438 6.945313,-2.820313 6.90625,-3.21875 L 3.921875,-30.875 C 3.878906,-31.269531 3.722656,-31.539063 3.453125,-31.6875 3.191406,-31.832031 2.9375,-31.890625 2.6875,-31.859375 l -0.140625,-1.328125 26.25,-2.84375 c 1.53125,-0.164063 2.25,-0.691406 2.15625,-1.578125 L 32.28125,-37.75 l 0.875,8.203125 z m 0,0"
           id="path78" /></g><g
         id="glyph-12-0"><path
           d="M 28.75,-34.234375 7.34375,-33.890625 7.828125,-4.4375 29.234375,-4.78125 Z M 32.859375,-38.625 33.46875,-0.546875 3.71875,-0.0625 3.109375,-38.140625 Z m 0,0"
           id="path81" /></g><g
         id="glyph-12-1" /><g
         id="glyph-13-0"><path
           d="m 32.578125,-30.609375 -21.296875,-2.171875 -3,29.296875 21.296875,2.171875 z M 37.1875,-34.46875 33.296875,3.40625 3.703125,0.375 7.59375,-37.5 Z m 0,0"
           id="path85" /></g><g
         id="glyph-13-1"><path
           d="m 23.9375,-3.078125 c 1.53125,0.167969 2.992188,0.210937 4.390625,0.125 1.40625,-0.082031 2.664063,-0.453125 3.78125,-1.109375 1.113281,-0.664063 2.050781,-1.691406 2.8125,-3.078125 0.769531,-1.394531 1.28125,-3.320313 1.53125,-5.78125 0.257813,-2.46875 0.148438,-4.4375 -0.328125,-5.90625 -0.46875,-1.476563 -1.1875,-2.625 -2.15625,-3.4375 -0.960937,-0.820313 -2.121094,-1.390625 -3.484375,-1.703125 -1.355469,-0.3125 -2.796875,-0.550781 -4.328125,-0.71875 l -9.625,-0.984375 L 14.3125,-4.0625 Z m -18.84375,2.25 C 6.226563,-0.710938 6.832031,-1.019531 6.90625,-1.75 L 9.75,-29.421875 c 0.070313,-0.75 -0.460937,-1.179688 -1.59375,-1.296875 l 0.140625,-1.3125 20.5625,2.09375 c 2.914063,0.304687 5.359375,1.027344 7.328125,2.171875 1.976563,1.148437 3.546875,2.542969 4.703125,4.1875 1.15625,1.636719 1.9375,3.464844 2.34375,5.484375 0.414063,2.011719 0.519531,4.046875 0.3125,6.109375 -0.21875,2.074219 -0.726562,4.054687 -1.515625,5.9375 C 41.25,-4.160156 40.132813,-2.53125 38.6875,-1.15625 37.25,0.21875 35.472656,1.269531 33.359375,2 31.242188,2.726563 28.726563,2.941406 25.8125,2.640625 l -20.859375,-2.125 z m 0,0"
           id="path88" /></g><g
         id="glyph-14-0"><path
           d="M 36.515625,-25.78125 15.71875,-30.890625 8.6875,-2.296875 29.484375,2.8125 Z M 41.59375,-28.96875 32.5,8 3.609375,0.890625 l 9.09375,-36.96875 z m 0,0"
           id="path91" /></g><g
         id="glyph-14-1"><path
           d="m 39.96875,-16.75 c 0.21875,-0.914063 -0.417969,-1.554688 -1.90625,-1.921875 L 20.4375,-23 l -1.765625,7.234375 11.125,2.734375 c 0.820313,0.199219 1.4375,0.28125 1.84375,0.25 0.414063,-0.03125 0.691406,-0.304688 0.828125,-0.828125 L 33.75,-13.28125 31.859375,-5.640625 30.421875,-6 c 0.28125,-0.488281 0.164063,-0.859375 -0.34375,-1.109375 -0.5,-0.257813 -1.230469,-0.503906 -2.1875,-0.734375 L 17.34375,-10.4375 15.25,-1.90625 33.734375,2.640625 C 34.304688,2.773438 34.820313,2.757813 35.28125,2.59375 35.738281,2.425781 36.019531,2.128906 36.125,1.703125 l 1.296875,0.3125 -1.859375,7.5625 -1.296875,-0.3125 C 34.367188,8.847656 34.226563,8.5625 33.84375,8.40625 33.46875,8.257813 32.992188,8.117188 32.421875,7.984375 l -26.5,-6.53125 L 6.25,0.140625 C 6.488281,0.203125 6.75,0.175781 7.03125,0.0625 7.3125,-0.0390625 7.503906,-0.28125 7.609375,-0.65625 L 14.25,-27.671875 c 0.09375,-0.382813 0.03516,-0.691406 -0.171875,-0.921875 -0.199219,-0.226563 -0.417969,-0.375 -0.65625,-0.4375 l 0.3125,-1.28125 L 39.375,-24 c 1.488281,0.367187 2.34375,0.109375 2.5625,-0.765625 l 1.296875,0.328125 -1.96875,8.015625 z m 0,0"
           id="path94" /></g><g
         id="glyph-15-0"><path
           d="M 39,-21.875 18.84375,-29.109375 8.875,-1.390625 29.03125,5.84375 Z M 44.375,-24.515625 31.5,11.3125 3.5,1.25 16.375,-34.578125 Z m 0,0"
           id="path97" /></g><g
         id="glyph-15-1" /><g
         id="glyph-16-0"><path
           d="M 41.265625,-17.1875 22.09375,-26.71875 8.984375,-0.34375 28.15625,9.1875 Z m 5.65625,-2 L 29.96875,14.90625 3.328125,1.65625 20.28125,-32.4375 Z m 0,0"
           id="path101" /></g><g
         id="glyph-16-1"><path
           d="m 13.796875,-6.84375 0.5,0.65625 c -0.199219,0.398437 -0.289062,0.804687 -0.265625,1.21875 0.03906,0.679687 0.390625,1.496094 1.046875,2.453125 0.65625,0.960937 1.472656,1.929687 2.453125,2.90625 0.976563,0.988281 2.050781,1.925781 3.21875,2.8125 1.164063,0.882813 2.257813,1.582031 3.28125,2.09375 0.757813,0.375 1.765625,0.800781 3.015625,1.28125 1.25,0.488281 2.535156,0.84375 3.859375,1.0625 1.332031,0.21875 2.570313,0.222656 3.71875,0.015625 1.15625,-0.199219 1.988281,-0.808594 2.5,-1.828125 0.507813,-1.023437 0.5,-1.96875 -0.03125,-2.84375 C 36.5625,2.117188 35.71875,1.257813 34.5625,0.40625 33.40625,-0.445313 32.03125,-1.304688 30.4375,-2.171875 28.851563,-3.046875 27.25,-3.96875 25.625,-4.9375 24.007813,-5.90625 22.46875,-6.945313 21,-8.0625 c -1.460937,-1.125 -2.640625,-2.367188 -3.546875,-3.734375 -0.90625,-1.363281 -1.433594,-2.867188 -1.578125,-4.515625 -0.148437,-1.65625 0.289063,-3.503906 1.3125,-5.546875 0.6875,-1.375 1.679688,-2.5625 2.984375,-3.5625 1.300781,-1.007813 2.867188,-1.695313 4.703125,-2.0625 1.84375,-0.363281 3.941406,-0.359375 6.296875,0.01563 2.363281,0.375 4.921875,1.246094 7.671875,2.609375 2.363281,1.179687 4.320313,2.375 5.875,3.59375 1.5625,1.210937 2.875,2.328125 3.9375,3.359375 1.0625,1.023437 1.9375,1.929687 2.625,2.71875 0.6875,0.78125 1.320313,1.320312 1.90625,1.609375 0.613281,0.304687 1.125,0.386719 1.53125,0.25 l 0.53125,0.9375 -8.71875,6.03125 -0.546875,-0.59375 c 0.21875,-0.65625 0.289063,-1.253906 0.21875,-1.796875 -0.08594,-0.707031 -0.414062,-1.519531 -0.984375,-2.4375 C 44.65625,-12.101563 43.914063,-13.035156 43,-13.984375 42.09375,-14.941406 41.054688,-15.863281 39.890625,-16.75 38.722656,-17.632813 37.5,-18.394531 36.21875,-19.03125 c -0.980469,-0.488281 -2.03125,-0.914063 -3.15625,-1.28125 -1.117187,-0.363281 -2.171875,-0.597656 -3.171875,-0.703125 -1,-0.101563 -1.90625,-0.03906 -2.71875,0.1875 -0.8125,0.230469 -1.40625,0.726562 -1.78125,1.484375 -0.53125,1.074219 -0.542969,2.070312 -0.03125,2.984375 0.519531,0.917969 1.347656,1.824219 2.484375,2.71875 1.132813,0.898437 2.488281,1.792969 4.0625,2.6875 1.570313,0.898437 3.164063,1.835937 4.78125,2.8125 1.625,0.96875 3.164063,2.023437 4.625,3.15625 1.457031,1.125 2.632813,2.371094 3.53125,3.734375 0.90625,1.363281 1.4375,2.859375 1.59375,4.484375 0.15625,1.632813 -0.261719,3.453125 -1.25,5.453125 -1.148437,2.300781 -2.695312,3.882813 -4.640625,4.75 C 38.597656,14.300781 36.5,14.695313 34.25,14.625 c -2.242187,-0.0625 -4.484375,-0.476562 -6.734375,-1.234375 -2.242187,-0.75 -4.277344,-1.585937 -6.109375,-2.5 -2.523437,-1.25 -4.570312,-2.449219 -6.140625,-3.59375 C 13.703125,6.160156 12.457031,5.097656 11.53125,4.109375 10.601563,3.128906 9.890625,2.304688 9.390625,1.640625 8.890625,0.984375 8.398438,0.535156 7.921875,0.296875 7.597656,0.140625 7.21875,0.171875 6.78125,0.390625 l -0.671875,-1 z m 0,0"
           id="path104" /></g><g
         id="glyph-17-0"><path
           d="M 43.3125,-11.03125 25.734375,-23.234375 8.9375,0.953125 26.515625,13.15625 Z M 49.21875,-12.203125 27.5,19.078125 3.0625,2.125 24.78125,-29.15625 Z m 0,0"
           id="path107" /></g><g
         id="glyph-17-1"><path
           d="m 53.359375,-19.078125 c -0.84375,0.78125 -1.730469,1.492187 -2.65625,2.125 -0.917969,0.636719 -1.871094,1.09375 -2.859375,1.375 -0.992187,0.28125 -2.007812,0.351562 -3.046875,0.203125 -1.03125,-0.15625 -2.09375,-0.613281 -3.1875,-1.375 -0.625,-0.425781 -1.242187,-1.03125 -1.84375,-1.8125 -0.59375,-0.78125 -1.1875,-1.585938 -1.78125,-2.421875 -0.59375,-0.84375 -1.1875,-1.644531 -1.78125,-2.40625 -0.585937,-0.757813 -1.164062,-1.34375 -1.734375,-1.75 -0.8125,-0.5625 -1.601562,-0.6875 -2.359375,-0.375 -0.761719,0.3125 -1.476562,0.726562 -2.140625,1.234375 l -3.421875,-2.359375 c 1.695313,-1.738281 3.457031,-2.921875 5.28125,-3.546875 1.820313,-0.632813 3.851563,-0.351563 6.09375,0.84375 0.71875,0.367187 1.375,0.9375 1.96875,1.71875 0.601563,0.78125 1.195313,1.605469 1.78125,2.46875 0.582031,0.855469 1.164063,1.695312 1.75,2.515625 0.582031,0.824219 1.175781,1.449219 1.78125,1.875 0.78125,0.542969 1.59375,0.699219 2.4375,0.46875 0.84375,-0.226563 1.585938,-0.628906 2.234375,-1.203125 z m -24.234375,22.625 2.1875,-13.6875 -11.453125,7.25 z M 1.671875,-0.484375 c 0.550781,0.28125 1.113281,0.335937 1.6875,0.15625 0.570313,-0.1875 1.054688,-0.382813 1.453125,-0.59375 l 22.875,-13.546875 c 0.644531,-0.382813 1.15625,-0.703125 1.53125,-0.953125 0.382813,-0.25 0.6875,-0.535156 0.90625,-0.859375 0.175781,-0.25 0.234375,-0.4375 0.171875,-0.5625 -0.05469,-0.132813 -0.109375,-0.285156 -0.171875,-0.453125 l 0.75,-1.09375 9.234375,6.40625 -0.75,1.09375 c -0.199219,-0.0078 -0.382812,-0.03906 -0.546875,-0.09375 -0.167969,-0.0625 -0.355469,0.05469 -0.5625,0.34375 -0.167969,0.242187 -0.277344,0.601562 -0.328125,1.078125 -0.05469,0.46875 -0.132812,0.996094 -0.234375,1.578125 L 33.15625,19.65625 c -0.05469,0.519531 -0.01563,0.945313 0.109375,1.28125 0.132813,0.332031 0.316406,0.628906 0.546875,0.890625 L 33.046875,22.9375 24.375,16.921875 25,16.015625 c 0.207031,0.144531 0.460938,0.226563 0.765625,0.25 0.3125,0.03125 0.582031,-0.117187 0.8125,-0.4375 0.164063,-0.25 0.28125,-0.507812 0.34375,-0.765625 0.0625,-0.261719 0.144531,-0.59375 0.25,-1 L 27.953125,9.4375 14.875,0.359375 l -4,2.125 C 10.476563,2.703125 10.132813,2.90625 9.84375,3.09375 9.5625,3.28125 9.351563,3.476563 9.21875,3.6875 8.988281,4.007813 8.945313,4.28125 9.09375,4.5 9.238281,4.71875 9.492188,4.953125 9.859375,5.203125 L 9.09375,6.3125 0.90625,0.625 Z m 0,0"
           id="path110" /></g><g
         id="glyph-18-0"><path
           d="M 44.421875,-4.96875 28.6875,-19.484375 8.71875,2.171875 24.453125,16.6875 Z m 6,-0.34375 -25.8125,28 -21.875,-20.171875 25.8125,-28 z m 0,0"
           id="path113" /></g><g
         id="glyph-18-1"><path
           d="M 35.4375,-4.96875 C 34.269531,-6.039063 32.953125,-6.894531 31.484375,-7.53125 30.023438,-8.175781 28.53125,-8.546875 27,-8.640625 c -1.53125,-0.101563 -3.03125,0.117187 -4.5,0.65625 -1.46875,0.53125 -2.808594,1.453125 -4.015625,2.765625 -1.210937,1.3125 -2.023437,2.726562 -2.4375,4.234375 -0.417969,1.5 -0.515625,3.003906 -0.296875,4.515625 0.21875,1.519531 0.707031,2.984375 1.46875,4.390625 0.757813,1.414063 1.722656,2.660156 2.890625,3.734375 1.164063,1.070313 2.476563,1.925781 3.9375,2.5625 1.457031,0.644531 2.953125,1.015625 4.484375,1.109375 1.539063,0.101563 3.046875,-0.109375 4.515625,-0.640625 1.46875,-0.53125 2.804688,-1.453125 4.015625,-2.765625 1.207031,-1.3125 2.019531,-2.726562 2.4375,-4.234375 0.414063,-1.511719 0.507813,-3.027344 0.28125,-4.546875 -0.21875,-1.511719 -0.710937,-2.96875 -1.46875,-4.375 -0.75,-1.414063 -1.710937,-2.660156 -2.875,-3.734375 z m 3.71875,-4.046875 c 2.007813,1.855469 3.660156,3.851562 4.953125,5.984375 1.300781,2.136719 2.132813,4.316406 2.5,6.546875 0.375,2.238281 0.226563,4.484375 -0.4375,6.734375 -0.65625,2.25 -1.945312,4.414063 -3.859375,6.5 -1.917969,2.082031 -3.976562,3.546875 -6.171875,4.390625 -2.199219,0.84375 -4.421875,1.164063 -6.671875,0.96875 C 27.21875,21.921875 25,21.238281 22.8125,20.0625 20.632813,18.894531 18.539063,17.382813 16.53125,15.53125 14.53125,13.6875 12.851563,11.71875 11.5,9.625 10.144531,7.539063 9.28125,5.382813 8.90625,3.15625 8.539063,0.9375 8.691406,-1.296875 9.359375,-3.546875 c 0.664063,-2.257813 1.957031,-4.429688 3.875,-6.515625 1.914063,-2.082031 3.96875,-3.539063 6.15625,-4.375 2.195313,-0.84375 4.421875,-1.171875 6.671875,-0.984375 2.25,0.179687 4.492188,0.828125 6.734375,1.953125 2.238281,1.125 4.359375,2.609375 6.359375,4.453125 z m 0,0"
           id="path116" /></g><g
         id="glyph-19-0"><path
           d="m 44.703125,-0.109375 -14.0625,-16.125 L 8.4375,3.125 22.5,19.25 Z m 6,0.296875 L 22,25.21875 2.4375,2.796875 31.140625,-22.234375 Z m 0,0"
           id="path119" /></g><g
         id="glyph-19-1" /><g
         id="glyph-20-0"><path
           d="M 44.40625,5.046875 32.296875,-12.609375 8.03125,4.0625 20.140625,21.71875 Z M 50.34375,6.03125 18.953125,27.59375 2.109375,3.0625 33.5,-18.5 Z m 0,0"
           id="path123" /></g><g
         id="glyph-20-1"><path
           d="m 37.28125,14.078125 c 0.925781,1.351563 1.984375,2.328125 3.171875,2.921875 1.1875,0.601563 2.5625,0.367188 4.125,-0.703125 1.550781,-1.0625 2.257813,-2.261719 2.125,-3.59375 C 46.578125,11.378906 46.050781,10.039063 45.125,8.6875 L 36.171875,-4.359375 28.328125,1.03125 Z M 3.203125,4.65625 4.3125,3.890625 C 5.351563,5.398438 6.238281,5.90625 6.96875,5.40625 l 27.828125,-19.109375 c 0.738281,-0.507813 0.585938,-1.519531 -0.453125,-3.03125 l 1.109375,-0.75 14.8125,21.578125 c 2.695313,3.925781 4.09375,7.507813 4.1875,10.75 0.09375,3.25 -1.601562,6.066406 -5.078125,8.453125 -3.46875,2.382813 -6.703125,2.945313 -9.703125,1.6875 -2.992187,-1.25 -5.835937,-3.839844 -8.53125,-7.765625 L 22.6875,4.90625 l -10.921875,7.5 c -0.730469,0.5 -0.648437,1.398438 0.25,2.703125 L 10.90625,15.875 Z m 0,0"
           id="path126" /></g><g
         id="glyph-21-0"><path
           d="m 43.21875,11.421875 -9.421875,-19.21875 -26.4375,12.96875 9.421875,19.21875 z m 5.703125,1.84375 L 14.75,30.046875 1.640625,3.34375 35.8125,-13.4375 Z m 0,0"
           id="path129" /></g><g
         id="glyph-21-1"><path
           d="M 23.71875,17.265625 32.28125,6.34375 18.734375,7.125 Z M 1.6875,0.40625 c 0.351563,0.5 0.820313,0.8125 1.40625,0.9375 0.59375,0.125 1.113281,0.1875 1.5625,0.1875 L 31.234375,0.8125 C 31.984375,0.78125 32.582031,0.75 33.03125,0.71875 33.488281,0.695313 33.894531,0.597656 34.25,0.421875 34.519531,0.285156 34.660156,0.144531 34.671875,0 c 0.0078,-0.144531 0.03125,-0.300781 0.0625,-0.46875 L 35.9375,-1.0625 40.875,9.015625 39.671875,9.609375 C 39.515625,9.503906 39.375,9.382813 39.25,9.25 39.132813,9.125 38.921875,9.140625 38.609375,9.296875 c -0.261719,0.125 -0.53125,0.378906 -0.8125,0.765625 -0.28125,0.382813 -0.609375,0.8125 -0.984375,1.28125 L 19.421875,33.296875 c -0.304687,0.425781 -0.480469,0.816406 -0.53125,1.171875 -0.04297,0.351563 -0.02734,0.703125 0.04687,1.046875 l -1.203125,0.59375 -4.65625,-9.46875 1,-0.484375 C 14.191406,26.375 14.375,26.570313 14.625,26.75 c 0.25,0.175781 0.550781,0.175781 0.90625,0 0.269531,-0.136719 0.492188,-0.304687 0.671875,-0.5 0.175781,-0.1875 0.410156,-0.4375 0.703125,-0.75 L 19.84375,21.828125 12.8125,7.546875 8.3125,7.4375 c -0.460937,0.00781 -0.859375,0.023438 -1.203125,0.046875 -0.335937,0.03125 -0.617187,0.101563 -0.84375,0.21875 -0.355469,0.175781 -0.523437,0.394531 -0.5,0.65625 0.019531,0.257813 0.125,0.585938 0.3125,0.984375 L 4.875,9.9375 0.484375,1 Z m 0,0"
           id="path132" /></g><g
         id="glyph-22-0"><path
           d="m 41.109375,17.578125 -6.546875,-20.375 -28.046875,9 6.546875,20.375 z M 46.484375,20.25 10.21875,31.875 1.140625,3.546875 37.40625,-8.078125 Z m 0,0"
           id="path135" /></g><g
         id="glyph-22-1"><path
           d="M 34.8125,5.78125 C 34.476563,4.738281 33.953125,4.332031 33.234375,4.5625 L 17.03125,9.765625 c -2.273437,0.726563 -3.824219,2.132813 -4.65625,4.21875 -0.835937,2.09375 -0.703125,4.835938 0.390625,8.234375 1.09375,3.40625 2.582031,5.710938 4.46875,6.921875 1.894531,1.21875 3.976563,1.460938 6.25,0.734375 L 39.6875,24.671875 c 0.71875,-0.230469 0.890625,-0.933594 0.515625,-2.109375 l 1.265625,-0.390625 3.15625,9.84375 -1.265625,0.390625 C 43.023438,31.363281 42.5,30.957031 41.78125,31.1875 l -17.90625,5.75 c -1.46875,0.46875 -2.984375,0.585938 -4.546875,0.359375 -1.554687,-0.21875 -3.0625,-0.839844 -4.53125,-1.859375 -1.46875,-1.023437 -2.835937,-2.484375 -4.09375,-4.390625 -1.261719,-1.90625 -2.34375,-4.28125 -3.25,-7.125 -0.90625,-2.824219 -1.40625,-5.382812 -1.5,-7.671875 -0.085937,-2.292969 0.175781,-4.277344 0.78125,-5.953125 0.613281,-1.679687 1.484375,-3.0625 2.609375,-4.15625 1.132813,-1.09375 2.4375,-1.875 3.90625,-2.34375 l 17.90625,-5.75 c 0.382813,-0.113281 0.613281,-0.34375 0.6875,-0.6875 0.07031,-0.34375 -0.02344,-0.914063 -0.28125,-1.71875 L 32.828125,-4.75 l 3.25,10.140625 z m 0,0"
           id="path138" /></g><g
         id="glyph-23-0"><path
           d="m 38.09375,23.390625 -3.484375,-21.125 -29.0625,4.8125 3.484375,21.125 z m 4.9375,3.40625 -37.5625,6.21875 -4.859375,-29.34375 37.5625,-6.21875 z m 0,0"
           id="path141" /></g><g
         id="glyph-23-1"><path
           d="m 34.96875,10.875 -1.3125,0.21875 C 33.46875,9.957031 33.003906,9.445313 32.265625,9.5625 l -24.4375,4.046875 3.28125,19.828125 c 0.09375,0.582031 0.3125,1.046875 0.65625,1.390625 0.34375,0.351563 0.753906,0.488281 1.234375,0.40625 L 13.21875,36.5625 5.515625,37.84375 5.296875,36.515625 C 5.679688,36.453125 5.863281,36.21875 5.84375,35.8125 5.832031,35.414063 5.78125,34.925781 5.6875,34.34375 L 0.921875,5.578125 2.25,5.359375 c 0.207031,1.269531 0.675781,1.84375 1.40625,1.71875 L 31.09375,2.53125 c 0.738281,-0.117187 1.003906,-0.808594 0.796875,-2.078125 l 1.3125,-0.21875 z m 0,0"
           id="path144" /></g><g
         id="glyph-24-0"><path
           d="M 34.515625,28.390625 33.953125,7 l -29.4375,0.78125 0.5625,21.390625 z m 4.421875,4.0625 -38.0625,1 -0.78125,-29.734375 38.0625,-1 z m 0,0"
           id="path147" /></g><g
         id="glyph-24-1"><path
           d="m 28.25,21.953125 c -0.04297,-1.585937 -0.34375,-3.125 -0.90625,-4.625 -0.5625,-1.5 -1.34375,-2.835937 -2.34375,-4 C 24,12.171875 22.800781,11.25 21.40625,10.5625 20.007813,9.882813 18.414063,9.570313 16.625,9.625 c -1.78125,0.039063 -3.359375,0.4375 -4.734375,1.1875 -1.375,0.757813 -2.53125,1.742188 -3.46875,2.953125 C 7.492188,14.984375 6.789063,16.351563 6.3125,17.875 5.832031,19.40625 5.613281,20.960938 5.65625,22.546875 5.695313,24.128906 6,25.664063 6.5625,27.15625 c 0.5625,1.5 1.335938,2.832031 2.328125,4 1,1.164063 2.203125,2.085938 3.609375,2.765625 1.40625,0.6875 3,1.007813 4.78125,0.96875 1.789063,-0.05469 3.367188,-0.460937 4.734375,-1.21875 1.363281,-0.75 2.515625,-1.734375 3.453125,-2.953125 0.9375,-1.21875 1.644531,-2.589844 2.125,-4.109375 0.476563,-1.523437 0.695313,-3.074219 0.65625,-4.65625 z m 5.5,-0.15625 c 0.07031,2.726563 -0.210937,5.300781 -0.84375,7.71875 -0.625,2.425781 -1.609375,4.550781 -2.953125,6.375 -1.34375,1.820313 -3.054687,3.28125 -5.125,4.375 -2.074219,1.09375 -4.527344,1.679688 -7.359375,1.765625 -2.824219,0.07031 -5.304687,-0.386719 -7.4375,-1.375 C 7.894531,39.664063 6.109375,38.296875 4.671875,36.546875 3.242188,34.796875 2.1875,32.726563 1.5,30.34375 0.820313,27.957031 0.445313,25.398438 0.375,22.671875 0.300781,19.953125 0.539063,17.378906 1.09375,14.953125 1.65625,12.535156 2.601563,10.414063 3.9375,8.59375 5.28125,6.78125 6.992188,5.328125 9.078125,4.234375 11.160156,3.140625 13.613281,2.554688 16.4375,2.484375 19.269531,2.398438 21.75,2.851563 23.875,3.84375 26,4.832031 27.78125,6.195313 29.21875,7.9375 c 1.4375,1.75 2.53125,3.816406 3.28125,6.203125 0.757813,2.382813 1.175781,4.9375 1.25,7.65625 z m 0,0"
           id="path150" /></g><g
         id="glyph-25-0"><path
           d="m 31.265625,31.953125 1.75,-21.34375 -29.359375,-2.40625 -1.75,21.34375 z M 35.21875,36.46875 -2.734375,33.359375 -0.296875,3.703125 37.65625,6.8125 Z m 0,0"
           id="path153" /></g><g
         id="glyph-25-1" /><g
         id="glyph-26-0"><path
           d="M 38.703125,13.140625 31.296875,-5 6.359375,5.1875 l 7.40625,18.140625 z m 5.09375,2.03125 L 11.5625,28.328125 1.28125,3.15625 33.515625,-10 Z m 0,0"
           id="path157" /></g><g
         id="glyph-26-1"><path
           d="m 41.21875,25.765625 c 0.457031,-0.1875 0.726563,-0.511719 0.8125,-0.96875 C 42.125,24.347656 41.992188,23.6875 41.640625,22.8125 L 33.3125,2.421875 25.5,5.609375 30.53125,17.9375 c 0.34375,0.84375 0.722656,1.445313 1.140625,1.8125 0.425781,0.375 1.125,0.363281 2.09375,-0.03125 l 0.453125,1.125 -9.828125,4.015625 -0.453125,-1.125 c 0.96875,-0.398437 1.492188,-0.886719 1.578125,-1.46875 0.08203,-0.574219 -0.04687,-1.28125 -0.390625,-2.125 L 20.09375,7.8125 11.390625,11.375 19.96875,32.390625 c 0.257813,0.632813 0.617188,1.085938 1.078125,1.359375 0.457031,0.28125 0.941406,0.316406 1.453125,0.109375 L 22.96875,35 14.328125,38.515625 13.859375,37.375 c 0.632813,-0.261719 0.910156,-0.605469 0.828125,-1.03125 -0.07422,-0.429687 -0.242187,-0.960937 -0.5,-1.59375 L 2.203125,5.40625 3.328125,4.953125 C 3.453125,5.253906 3.65625,5.476563 3.9375,5.625 c 0.289063,0.144531 0.625,0.144531 1,0 L 33.515625,-6.046875 c 0.382813,-0.15625 0.625,-0.382813 0.71875,-0.6875 0.09375,-0.3125 0.07813,-0.617188 -0.04687,-0.921875 l 1.125,-0.46875 11.734375,28.71875 c 0.351563,0.875 0.738281,1.4375 1.15625,1.6875 0.425781,0.25 0.867188,0.28125 1.328125,0.09375 L 50,23.5 41.6875,26.890625 Z m 0,0"
           id="path160" /></g><g
         id="glyph-27-0"><path
           d="M 40.25,7.21875 30.21875,-9.609375 7.078125,4.171875 17.109375,21 Z m 5.3125,1.25 L 15.65625,26.28125 1.75,2.921875 l 29.90625,-17.8125 z m 0,0"
           id="path163" /></g><g
         id="glyph-27-1"><path
           d="m 13.984375,1.5625 0.0625,0.765625 c -0.355469,0.207031 -0.617187,0.46875 -0.78125,0.78125 -0.324219,0.550781 -0.46875,1.359375 -0.4375,2.421875 0.03125,1.0625 0.175781,2.210938 0.4375,3.453125 0.257813,1.238281 0.617188,2.488281 1.078125,3.75 0.46875,1.257813 0.96875,2.335938 1.5,3.234375 0.394531,0.664063 0.953125,1.492188 1.671875,2.484375 0.726563,1 1.550781,1.910156 2.46875,2.734375 0.914063,0.820313 1.863281,1.441406 2.84375,1.859375 0.976563,0.425781 1.921875,0.367188 2.828125,-0.171875 0.894531,-0.53125 1.347656,-1.273437 1.359375,-2.21875 0.01953,-0.9375 -0.203125,-2.023437 -0.671875,-3.25 -0.460937,-1.21875 -1.085937,-2.558594 -1.875,-4.015625 -0.78125,-1.449219 -1.554687,-2.949219 -2.3125,-4.5 C 21.394531,7.335938 20.722656,5.769531 20.140625,4.1875 19.566406,2.601563 19.269531,1.066406 19.25,-0.421875 c -0.01172,-1.5 0.332031,-2.921875 1.03125,-4.265625 0.707031,-1.34375 1.957031,-2.546875 3.75,-3.609375 1.207031,-0.71875 2.5625,-1.140625 4.0625,-1.265625 1.507813,-0.132813 3.054688,0.117187 4.640625,0.75 1.59375,0.636719 3.203125,1.683594 4.828125,3.140625 1.632813,1.449219 3.171875,3.382812 4.609375,5.796875 1.226563,2.0625 2.140625,3.941406 2.734375,5.640625 0.601563,1.707031 1.054688,3.21875 1.359375,4.53125 0.3125,1.320313 0.539063,2.457031 0.6875,3.40625 0.144531,0.945313 0.367188,1.675781 0.671875,2.1875 0.320313,0.550781 0.664063,0.867188 1.03125,0.953125 l -0.04687,0.984375 -9.703125,0.3125 -0.125,-0.71875 c 0.5,-0.398437 0.851563,-0.820312 1.0625,-1.265625 0.289063,-0.59375 0.441406,-1.386719 0.453125,-2.375 0.01953,-0.980469 -0.08594,-2.0625 -0.3125,-3.25 C 39.753906,9.34375 39.410156,8.125 38.953125,6.875 38.503906,5.625 37.941406,4.429688 37.265625,3.296875 36.753906,2.441406 36.15625,1.59375 35.46875,0.75 c -0.679687,-0.8320313 -1.375,-1.535156 -2.09375,-2.109375 -0.710937,-0.582031 -1.433594,-0.976563 -2.171875,-1.1875 -0.730469,-0.21875 -1.429687,-0.132813 -2.09375,0.25 -0.9375,0.5625 -1.4375,1.324219 -1.5,2.28125 -0.0625,0.945313 0.117188,2.046875 0.546875,3.296875 0.425781,1.25 1.023438,2.609375 1.796875,4.078125 0.769531,1.46875 1.535156,2.976563 2.296875,4.53125 0.769531,1.550781 1.429688,3.125 1.984375,4.71875 0.550781,1.59375 0.832031,3.132813 0.84375,4.625 0.01953,1.488281 -0.3125,2.898438 -1,4.234375 -0.679687,1.34375 -1.898437,2.539063 -3.65625,3.59375 -2.023437,1.195313 -3.996094,1.640625 -5.921875,1.328125 -1.917969,-0.304687 -3.71875,-1.03125 -5.40625,-2.1875 -1.6875,-1.15625 -3.214844,-2.585937 -4.578125,-4.28125 -1.355469,-1.699219 -2.507812,-3.34375 -3.453125,-4.9375 C 9.75,16.765625 8.769531,14.828125 8.125,13.171875 7.488281,11.515625 7.054688,10.082031 6.828125,8.875 6.609375,7.664063 6.46875,6.679688 6.40625,5.921875 6.34375,5.160156 6.1875,4.566406 5.9375,4.140625 5.78125,3.867188 5.476563,3.707031 5.03125,3.65625 L 5,2.5625 Z m 0,0"
           id="path166" /></g><g
         id="glyph-28-0"><path
           d="M 40.875,0.953125 28.375,-14.140625 7.625,3.03125 20.125,18.125 Z M 46.328125,1.359375 19.515625,23.5625 2.171875,2.625 l 26.8125,-22.203125 z m 0,0"
           id="path169" /></g><g
         id="glyph-28-1"><path
           d="m 31.5625,30.453125 c -0.08594,-0.105469 -0.152344,-0.210937 -0.203125,-0.3125 -0.05469,-0.105469 -0.125,-0.210937 -0.21875,-0.3125 -0.167969,-0.210937 -0.789062,-0.53125 -1.859375,-0.96875 -1.074219,-0.4375 -2.371094,-1.042969 -3.890625,-1.8125 C 23.878906,26.273438 22.289063,25.28125 20.625,24.0625 18.96875,22.84375 17.445313,21.394531 16.0625,19.71875 14.238281,17.507813 12.765625,15.164063 11.640625,12.6875 10.523438,10.207031 9.910156,7.703125 9.796875,5.171875 c -0.117187,-2.53125 0.320313,-4.96875 1.3125,-7.3125 1,-2.351563 2.671875,-4.5 5.015625,-6.4375 2.300781,-1.90625 4.707031,-3.132813 7.21875,-3.6875 2.507813,-0.550781 5,-0.539063 7.46875,0.03125 2.476563,0.574219 4.851563,1.625 7.125,3.15625 2.269531,1.53125 4.316406,3.402344 6.140625,5.609375 1.476563,1.78125 2.675781,3.5078125 3.59375,5.1875 0.925781,1.675781 1.675781,3.1875 2.25,4.53125 0.582031,1.34375 0.992188,2.441406 1.234375,3.296875 0.238281,0.851563 0.421875,1.351563 0.546875,1.5 0.132813,0.164063 0.335938,0.238281 0.609375,0.21875 0.28125,-0.01172 0.503906,-0.02344 0.671875,-0.03125 L 53,12.53125 43.28125,13.6875 43.21875,12.859375 c 0.101563,-0.08594 0.203125,-0.179687 0.296875,-0.28125 0.09375,-0.105469 0.1875,-0.234375 0.28125,-0.390625 0.332031,-0.375 0.4375,-1.046875 0.3125,-2.015625 C 43.992188,9.210938 43.710938,8.132813 43.265625,6.9375 42.816406,5.75 42.269531,4.550781 41.625,3.34375 40.976563,2.144531 40.296875,1.113281 39.578125,0.25 c -1.21875,-1.46875 -2.59375,-2.695313 -4.125,-3.6875 -1.523437,-1 -3.101562,-1.660156 -4.734375,-1.984375 -1.625,-0.332031 -3.273437,-0.3125 -4.9375,0.0625 -1.65625,0.367187 -3.234375,1.171875 -4.734375,2.421875 -1.511719,1.242187 -2.605469,2.640625 -3.28125,4.203125 -0.667969,1.5625 -0.992187,3.171875 -0.96875,4.828125 0.01953,1.664063 0.375,3.34375 1.0625,5.03125 0.6875,1.695313 1.640625,3.28125 2.859375,4.75 0.925781,1.113281 2.023438,2.171875 3.296875,3.171875 1.28125,1 2.539063,1.835938 3.78125,2.515625 1.238281,0.6875 2.390625,1.160156 3.453125,1.421875 1.070313,0.257813 1.832031,0.207031 2.28125,-0.15625 0.25,-0.210937 0.40625,-0.460937 0.46875,-0.75 l 1.015625,0.390625 -2.6875,8.046875 z m 0,0"
           id="path172" /></g><g
         id="glyph-29-0"><path
           d="M 40.46875,-5.796875 25.65625,-18.625 8.015625,1.75 22.828125,14.578125 Z M 45.921875,-6.28125 23.125,20.03125 2.578125,2.234375 25.375,-24.078125 Z m 0,0"
           id="path175" /></g><g
         id="glyph-29-1"><path
           d="m 39.59375,-5.296875 c -1.304687,-1.125 -2.789062,-2.039063 -4.453125,-2.75 -1.65625,-0.71875 -3.34375,-1.144531 -5.0625,-1.28125 -1.710937,-0.144531 -3.382812,0.070312 -5.015625,0.640625 -1.625,0.574219 -3.058594,1.578125 -4.296875,3.015625 -1.25,1.4375 -2.042969,3.007812 -2.375,4.703125 -0.324219,1.6875 -0.296875,3.367188 0.07813,5.046875 0.382813,1.675781 1.046875,3.28125 1.984375,4.8125 0.945313,1.539063 2.070313,2.875 3.375,4 1.289063,1.132813 2.769531,2.054688 4.4375,2.765625 1.664063,0.71875 3.351563,1.144531 5.0625,1.28125 1.71875,0.132813 3.390625,-0.08594 5.015625,-0.65625 1.625,-0.5625 3.0625,-1.5625 4.3125,-3 1.238281,-1.4375 2.023438,-3.007812 2.359375,-4.703125 C 45.347656,6.878906 45.320313,5.191406 44.9375,3.515625 44.5625,1.847656 43.898438,0.25 42.953125,-1.28125 42.003906,-2.820313 40.882813,-4.160156 39.59375,-5.296875 Z m 4.09375,-4.734375 c 1.875,1.636719 3.539063,3.585937 5,5.84375 1.46875,2.25 2.519531,4.640625 3.15625,7.171875 0.632813,2.53125 0.710938,5.101563 0.234375,7.71875 -0.46875,2.625 -1.726562,5.117188 -3.765625,7.484375 -2.054687,2.363281 -4.34375,3.960938 -6.875,4.796875 -2.523437,0.84375 -5.078125,1.128906 -7.671875,0.859375 -2.59375,-0.261719 -5.09375,-0.980469 -7.5,-2.15625 -2.398437,-1.179687 -4.53125,-2.585937 -6.40625,-4.21875 -1.886719,-1.625 -3.585937,-3.542969 -5.09375,-5.75 -1.511719,-2.210937 -2.585937,-4.578125 -3.21875,-7.109375 -0.625,-2.523437 -0.703125,-5.085938 -0.234375,-7.703125 0.476563,-2.625 1.742188,-5.117188 3.796875,-7.484375 2.039063,-2.363281 4.320313,-3.960938 6.84375,-4.796875 2.53125,-0.84375 5.085938,-1.132813 7.671875,-0.875 2.59375,0.261719 5.113281,0.960937 7.5625,2.09375 2.445313,1.125 4.613281,2.5 6.5,4.125 z m 0,0"
           id="path178" /></g><g
         id="glyph-30-0"><path
           d="M 39.09375,-11.953125 22.5,-22.34375 8.203125,0.484375 24.796875,10.875 Z M 44.40625,-13.25 25.921875,16.25 2.890625,1.8125 21.375,-27.6875 Z m 0,0"
           id="path181" /></g><g
         id="glyph-30-1"><path
           d="m 32.390625,21.8125 c 0.363281,-0.585937 0.382813,-1.027344 0.0625,-1.328125 C 32.140625,20.179688 31.691406,19.851563 31.109375,19.5 L 3.6875,2.3125 4.328125,1.28125 C 5.484375,2 6.28125,2.007813 6.71875,1.3125 l 16.390625,-26.15625 c 0.4375,-0.695313 0.07813,-1.40625 -1.078125,-2.125 L 22.671875,-28 l 9.90625,6.203125 -0.640625,1.03125 c -1.074219,-0.675781 -1.828125,-0.664063 -2.265625,0.03125 l -14.375,22.9375 19.125,12 c 0.582031,0.351563 1.140625,0.507813 1.671875,0.46875 0.539063,-0.04297 0.957031,-0.296875 1.25,-0.765625 l 1.03125,0.65625 -4.953125,7.90625 z m 0,0"
           id="path184" /></g><g
         id="glyph-31-0"><path
           d="M 36.984375,-17.390625 19.078125,-25.3125 8.1875,-0.671875 26.09375,7.25 Z M 42.0625,-19.46875 27.984375,12.375 3.109375,1.375 17.1875,-30.46875 Z m 0,0"
           id="path187" /></g><g
         id="glyph-31-1"><path
           d="m 30.359375,-1.734375 -0.09375,-13.875 -10.984375,8.96875 z m -28.5625,1.203125 c 0.570313,0.148437 1.113281,0.0625 1.625,-0.25 0.519531,-0.320313 1.054688,-0.707031 1.609375,-1.15625 l 22.203125,-19.109375 c 0.519531,-0.40625 0.992188,-0.785156 1.421875,-1.140625 0.4375,-0.351563 0.726563,-0.695313 0.875,-1.03125 0.1875,-0.414063 0.171875,-0.769531 -0.04687,-1.0625 -0.21875,-0.300781 -0.480469,-0.566406 -0.78125,-0.796875 l 0.5,-1.109375 10.515625,4.65625 -0.5,1.109375 c -0.324219,-0.05078 -0.664062,-0.06641 -1.015625,-0.04687 -0.34375,0.02344 -0.621094,0.261719 -0.828125,0.71875 -0.148437,0.335937 -0.226562,0.699219 -0.234375,1.09375 0,0.398437 0.02344,0.921875 0.07813,1.578125 l 1.734375,31.046875 c 0,0.53125 0.128906,0.976563 0.390625,1.34375 0.257813,0.375 0.578125,0.769531 0.953125,1.1875 l -0.5,1.109375 -10.953125,-4.84375 0.5,-1.109375 c 0.175781,0.07031 0.410156,0.09766 0.703125,0.07813 0.300781,-0.01172 0.507813,-0.148437 0.625,-0.40625 0.175781,-0.40625 0.25,-1.015625 0.21875,-1.828125 L 30.5625,3.84375 15.390625,-2.859375 11.203125,0.5625 C 10.398438,1.257813 9.914063,1.796875 9.75,2.171875 9.550781,2.628906 9.84375,3.03125 10.625,3.375 l -0.5,1.109375 -8.828125,-3.90625 z m 0,0"
           id="path190" /></g><g
         id="glyph-32-0"><path
           d="M 34.84375,-21.375 16.171875,-27.265625 8.0625,-1.578125 26.734375,4.3125 Z M 39.65625,-24 29.171875,9.203125 3.25,1.03125 13.734375,-32.171875 Z m 0,0"
           id="path193" /></g><g
         id="glyph-32-1" /><g
         id="glyph-33-0"><path
           d="m 32.265625,-25.09375 -19.21875,-3.796875 -5.21875,26.421875 19.21875,3.796875 z m 4.5,-3.125 -6.75,34.15625 L 3.34375,0.65625 10.09375,-33.5 Z m 0,0"
           id="path197" /></g><g
         id="glyph-33-1"><path
           d="m 33.390625,-14.625 c 1.457031,0.292969 2.765625,0.257812 3.921875,-0.109375 1.164063,-0.375 1.914063,-1.398438 2.25,-3.078125 0.332031,-1.695313 0.03125,-2.9375 -0.90625,-3.71875 -0.929687,-0.789063 -2.121094,-1.332031 -3.578125,-1.625 l -14.21875,-2.796875 -1.6875,8.53125 z M 5.078125,1 5.3125,-0.203125 c 1.644531,0.320313 2.546875,0.085937 2.703125,-0.71875 L 14,-31.203125 c 0.164063,-0.800781 -0.574219,-1.363281 -2.21875,-1.6875 L 12.015625,-34.09375 35.5,-29.453125 c 4.257813,0.84375 7.457031,2.304687 9.59375,4.375 2.132813,2.0625 2.828125,4.984375 2.078125,8.765625 -0.75,3.78125 -2.507812,6.21875 -5.265625,7.3125 -2.761719,1.09375 -6.273437,1.21875 -10.53125,0.375 L 17.953125,-11.265625 15.609375,0.59375 c -0.15625,0.800781 0.476563,1.335938 1.90625,1.609375 L 17.28125,3.40625 Z m 0,0"
           id="path200" /></g><g
         id="glyph-34-0"><path
           d="M 27.859375,-29.921875 8.28125,-30.609375 7.34375,-3.6875 26.921875,-3 Z m 3.9375,-3.8125 L 30.578125,1.0625 3.40625,0.125 4.625,-34.671875 Z m 0,0"
           id="path203" /></g><g
         id="glyph-34-1"><path
           d="m 27.484375,-28.984375 c -1.71875,-0.0625 -3.453125,0.152344 -5.203125,0.640625 -1.742187,0.492187 -3.324219,1.21875 -4.75,2.1875 -1.417969,0.960937 -2.578125,2.179687 -3.484375,3.65625 -0.90625,1.46875 -1.390625,3.152344 -1.453125,5.046875 -0.07422,1.90625 0.289063,3.621094 1.09375,5.140625 0.800781,1.511719 1.878906,2.804687 3.234375,3.875 1.351563,1.074219 2.878906,1.914062 4.578125,2.515625 1.707031,0.605469 3.421875,0.9375 5.140625,1 1.71875,0.0625 3.445313,-0.148438 5.1875,-0.640625 1.75,-0.488281 3.332031,-1.21875 4.75,-2.1875 1.414063,-0.976563 2.578125,-2.195313 3.484375,-3.65625 0.90625,-1.457031 1.394531,-3.140625 1.46875,-5.046875 0.0625,-1.894531 -0.308594,-3.609375 -1.109375,-5.140625 -0.804687,-1.53125 -1.882812,-2.828125 -3.234375,-3.890625 -1.34375,-1.0625 -2.871094,-1.894531 -4.578125,-2.5 -1.699219,-0.601563 -3.40625,-0.9375 -5.125,-1 z m 0.21875,-6.25 c 2.488281,0.08594 5.007813,0.546875 7.5625,1.390625 2.5625,0.835937 4.878906,2.039062 6.953125,3.609375 2.082031,1.574219 3.757813,3.527344 5.03125,5.859375 1.28125,2.335937 1.867188,5.0625 1.765625,8.1875 -0.117187,3.136719 -0.890625,5.824219 -2.328125,8.0625 -1.4375,2.230469 -3.25,4.058594 -5.4375,5.484375 -2.179687,1.417969 -4.570312,2.417969 -7.171875,3 C 31.472656,0.953125 28.925781,1.207031 26.4375,1.125 23.945313,1.039063 21.414063,0.613281 18.84375,-0.15625 c -2.5625,-0.78125 -4.882812,-1.953125 -6.953125,-3.515625 -2.074219,-1.570313 -3.75,-3.519531 -5.03125,-5.84375 -1.28125,-2.332031 -1.867187,-5.066406 -1.75,-8.203125 0.101563,-3.125 0.875,-5.804688 2.3125,-8.046875 1.445313,-2.238281 3.257813,-4.070313 5.4375,-5.5 2.175781,-1.425781 4.570313,-2.460938 7.1875,-3.109375 2.613281,-0.65625 5.164063,-0.941406 7.65625,-0.859375 z m 0,0"
           id="path206" /></g><g
         id="glyph-35-0"><path
           d="M 22.984375,-33.8125 3.53125,-31.5 6.6875,-4.75 26.140625,-7.0625 Z m 3.296875,-4.359375 4.09375,34.578125 -27,3.1875 -4.09375,-34.578125 z m 0,0"
           id="path209" /></g><g
         id="glyph-35-1"><path
           d="M 38.921875,-3.3125 C 38.835938,-3.988281 38.570313,-4.34375 38.125,-4.375 37.6875,-4.414063 37.132813,-4.394531 36.46875,-4.3125 L 4.328125,-0.515625 4.1875,-1.71875 C 5.53125,-1.875 6.15625,-2.363281 6.0625,-3.1875 L 2.421875,-33.828125 c -0.09375,-0.820313 -0.8125,-1.15625 -2.15625,-1 L 0.125,-36.03125 l 11.609375,-1.375 0.140625,1.203125 c -1.261719,0.15625 -1.84375,0.648437 -1.75,1.46875 l 3.1875,26.875 22.421875,-2.65625 c 0.664063,-0.08203 1.195313,-0.304688 1.59375,-0.671875 0.394531,-0.375 0.5625,-0.832031 0.5,-1.375 l 1.203125,-0.140625 1.09375,9.25 z m 0,0"
           id="path212" /></g><g
         id="glyph-36-0"><path
           d="m 19.234375,-36.078125 -19.109375,4.375 6.015625,26.25 19.109375,-4.375 z m 2.828125,-4.6875 7.765625,33.9375 -26.515625,6.0625 -7.765625,-33.9375 z m 0,0"
           id="path215" /></g><g
         id="glyph-36-1"><path
           d="m 5.234375,-2.453125 c 1.144531,-0.257813 1.625,-0.789063 1.4375,-1.59375 L -0.21875,-34.125 c -0.1875,-0.800781 -0.851563,-1.070313 -2,-0.8125 l -0.265625,-1.1875 11.015625,-2.515625 0.265625,1.1875 c -1.15625,0.261719 -1.640625,0.792969 -1.453125,1.59375 l 6.890625,30.078125 c 0.1875,0.804687 0.859375,1.074219 2.015625,0.8125 l 0.265625,1.1875 L 5.5,-1.265625 Z m 0,0"
           id="path218" /></g><g
         id="glyph-37-0"><path
           d="m 15.25,-37.9375 -18.515625,6.390625 8.796875,25.46875 18.515625,-6.390625 z m 2.296875,-4.96875 11.375,32.90625 -25.703125,8.890625 -11.375,-32.90625 z m 0,0"
           id="path221" /></g><g
         id="glyph-37-1"><path
           d="m 22.46875,-10.34375 c 0.269531,0.773437 0.875,0.992187 1.8125,0.65625 l 0.390625,1.15625 -9.890625,3.421875 -0.390625,-1.15625 c 0.289063,-0.101563 0.519531,-0.289063 0.6875,-0.5625 0.164063,-0.28125 0.1875,-0.609375 0.0625,-0.984375 l -8.84375,-25.578125 -10.609375,3.65625 c -0.382813,0.136719 -0.722656,0.375 -1.015625,0.71875 -0.289063,0.335937 -0.332031,0.804687 -0.125,1.40625 L -6.59375,-27.21875 -9.703125,-36.234375 -8.5625,-36.625 c 0.210937,0.605469 0.53125,0.953125 0.96875,1.046875 0.4375,0.09375 0.851562,0.07422 1.234375,-0.0625 L 22.1875,-45.5 c 0.382813,-0.132813 0.722656,-0.375 1.015625,-0.71875 0.289063,-0.34375 0.332031,-0.816406 0.125,-1.421875 l 1.15625,-0.40625 3.109375,9.015625 -1.15625,0.40625 c -0.210937,-0.601563 -0.53125,-0.945313 -0.96875,-1.03125 -0.4375,-0.09375 -0.851562,-0.07031 -1.234375,0.0625 L 13.625,-35.921875 Z m 0,0"
           id="path224" /></g><g
         id="glyph-38-0"><path
           d="m 9.65625,-39.734375 -17.40625,9 12.34375,23.9375 17.40625,-9 z m 1.5625,-5.234375 15.96875,30.9375 L 3.03125,-1.5625 -12.9375,-32.5 Z m 0,0"
           id="path227" /></g><g
         id="glyph-38-1"><path
           d="m 3.953125,-44.828125 -5.078125,2.625 1.015625,-11.53125 8.15625,-4.203125 z m 18.0625,1.484375 c -0.230469,-0.445313 -0.574219,-0.691406 -1.03125,-0.734375 C 20.523438,-44.128906 19.875,-43.9375 19.03125,-43.5 l -19.578125,10.109375 3.859375,7.5 L 15.15625,-32 c 0.8125,-0.414063 1.378906,-0.847656 1.703125,-1.296875 0.332031,-0.445313 0.257813,-1.132813 -0.21875,-2.0625 l 1.078125,-0.5625 4.875,9.421875 -1.078125,0.5625 c -0.480469,-0.925781 -1.011719,-1.40625 -1.59375,-1.4375 -0.574219,-0.03125 -1.265625,0.164062 -2.078125,0.578125 L 6,-20.6875 l 4.3125,8.34375 20.171875,-10.421875 c 0.613281,-0.3125 1.035156,-0.707031 1.265625,-1.1875 0.238281,-0.488281 0.226563,-0.976563 -0.03125,-1.46875 l 1.09375,-0.5625 4.28125,8.296875 L 36,-17.125 c -0.3125,-0.613281 -0.683594,-0.859375 -1.109375,-0.734375 -0.417969,0.117187 -0.933594,0.328125 -1.546875,0.640625 L 5.1875,-2.6875 4.625,-3.765625 c 0.289063,-0.144531 0.5,-0.367188 0.625,-0.671875 0.132813,-0.300781 0.109375,-0.632813 -0.078125,-1 l -14.15625,-27.40625 c -0.1875,-0.375 -0.4375,-0.59375 -0.75,-0.65625 -0.320313,-0.07031 -0.628906,-0.03516 -0.921875,0.109375 l -0.5625,-1.078125 27.5625,-14.21875 c 0.84375,-0.4375 1.367188,-0.875 1.578125,-1.3125 0.207031,-0.445313 0.195313,-0.890625 -0.03125,-1.328125 l 1.078125,-0.546875 4.125,7.984375 z m 0,0"
           id="path230" /></g><g
         id="glyph-39-0"><path
           d="m 3.421875,-40.734375 -15.828125,11.5625 15.890625,21.75 15.828125,-11.5625 z M 4.15625,-46.15625 24.703125,-18.046875 2.75,-2.015625 -17.796875,-30.125 Z m 0,0"
           id="path233" /></g><g
         id="glyph-39-1"><path
           d="m 32.296875,-29.671875 c -0.105469,0.07422 -0.214844,0.136719 -0.328125,0.1875 -0.105469,0.04297 -0.210937,0.105469 -0.3125,0.1875 -0.21875,0.15625 -0.585937,0.761719 -1.09375,1.8125 -0.5,1.042969 -1.183594,2.296875 -2.046875,3.765625 -0.855469,1.46875 -1.9375,2.996094 -3.25,4.578125 -1.3125,1.574219 -2.851562,3 -4.609375,4.28125 -2.3125,1.699219 -4.746094,3.03125 -7.296875,4 C 10.816406,-9.898438 8.28125,-9.4375 5.75,-9.46875 3.21875,-9.5 0.8125,-10.082031 -1.46875,-11.21875 c -2.28125,-1.144531 -4.320313,-2.941406 -6.125,-5.390625 -1.757813,-2.414063 -2.835938,-4.894531 -3.234375,-7.4375 -0.40625,-2.539063 -0.25,-5.023438 0.46875,-7.453125 0.71875,-2.4375 1.914062,-4.738281 3.578125,-6.90625 1.667969,-2.175781 3.65625,-4.113281 5.96875,-5.8125 1.875,-1.363281 3.675781,-2.453125 5.40625,-3.265625 1.726563,-0.820313 3.28125,-1.476563 4.65625,-1.96875 1.375,-0.5 2.492188,-0.84375 3.359375,-1.03125 0.875,-0.195313 1.382813,-0.351563 1.53125,-0.46875 0.175781,-0.125 0.265625,-0.320313 0.265625,-0.59375 0,-0.269531 0,-0.492188 0,-0.671875 l 1.296875,0.0625 0.578125,9.78125 H 15.4375 c -0.07422,-0.101563 -0.164062,-0.203125 -0.265625,-0.296875 C 15.078125,-42.773438 14.957031,-42.882813 14.8125,-43 c -0.367187,-0.351563 -1.03125,-0.492188 -2,-0.421875 -0.96875,0.0625 -2.0625,0.28125 -3.28125,0.65625 -1.210937,0.375 -2.433594,0.851562 -3.671875,1.421875 -1.230469,0.574219 -2.304687,1.1875 -3.21875,1.84375 -1.53125,1.125 -2.84375,2.421875 -3.9375,3.890625 -1.09375,1.46875 -1.847656,3.007812 -2.265625,4.609375 -0.425781,1.605469 -0.503906,3.25 -0.234375,4.9375 0.261719,1.679687 0.96875,3.304687 2.125,4.875 1.15625,1.585937 2.488281,2.761719 4,3.53125 1.519531,0.761719 3.109375,1.183594 4.765625,1.265625 1.65625,0.07422 3.347656,-0.179688 5.078125,-0.765625 1.738281,-0.59375 3.375,-1.453125 4.90625,-2.578125 1.175781,-0.851563 2.300781,-1.882813 3.375,-3.09375 1.082031,-1.21875 2,-2.421875 2.75,-3.609375 0.75,-1.195313 1.285156,-2.320313 1.609375,-3.375 0.332031,-1.0625 0.328125,-1.828125 -0.01563,-2.296875 -0.1875,-0.257813 -0.421875,-0.425781 -0.703125,-0.5 l 0.453125,-0.984375 7.875,3.171875 z m 0,0"
           id="path236" /></g><g
         id="glyph-40-0"><path
           d="m -3.34375,-40.734375 -13.703125,14 19.265625,18.828125 13.703125,-14 z M -3.5,-46.203125 21.390625,-21.875 2.375,-2.4375 -22.515625,-26.765625 Z m 0,0"
           id="path239" /></g><g
         id="glyph-40-1"><path
           d="m 3.453125,-5.28125 c 0.601563,-0.625 0.613281,-1.222656 0.03125,-1.796875 l -22.078125,-21.5625 c -0.582031,-0.570313 -1.175781,-0.546875 -1.78125,0.07813 l -0.875,-0.859375 8.125,-8.3125 0.875,0.859375 c -0.257813,0.261719 -0.226563,0.546875 0.09375,0.859375 0.261719,0.261719 1.039062,0.386719 2.328125,0.375 L 18.28125,-35.46875 2.828125,-50.5625 C 2.242188,-51.132813 1.539063,-51 0.71875,-50.15625 l -0.875,-0.859375 7.171875,-7.34375 0.875,0.859375 c -0.59375,0.617187 -0.601562,1.210937 -0.015625,1.78125 l 22.078125,21.5625 c 0.582031,0.574219 1.171875,0.554687 1.765625,-0.0625 l 0.875,0.859375 -7.6875,7.875 -0.875,-0.859375 c 0.40625,-0.414063 0.460938,-0.765625 0.171875,-1.046875 -0.230469,-0.21875 -0.855469,-0.320313 -1.875,-0.3125 L -7.640625,-28 8.515625,-12.21875 c 0.582031,0.574219 1.238281,0.484375 1.96875,-0.265625 l 0.875,0.859375 -7.03125,7.203125 z m 0,0"
           id="path242" /></g><g
         id="glyph-41-0"><path
           d="m -8.359375,-40.015625 -11.859375,15.59375 21.4375,16.3125 11.859375,-15.59375 z m -0.84375,-5.40625 27.71875,21.0625 L 2.0625,-2.71875 -25.65625,-23.78125 Z m 0,0"
           id="path245" /></g><g
         id="glyph-41-1"><path
           d="M 2.4375,-5.21875 C 3.15625,-6.15625 3.1875,-6.875 2.53125,-7.375 l -24.5625,-18.671875 c -0.65625,-0.5 -1.34375,-0.28125 -2.0625,0.65625 l -0.96875,-0.734375 6.84375,-9 0.96875,0.734375 c -0.71875,0.949219 -0.75,1.671875 -0.09375,2.171875 l 24.5625,18.671875 c 0.65625,0.5 1.34375,0.277344 2.0625,-0.671875 l 0.96875,0.734375 -6.84375,9 z m 0,0"
           id="path248" /></g><g
         id="glyph-42-0"><path
           d="m -13.046875,-38.75 -9.921875,16.90625 23.234375,13.640625 9.921875,-16.90625 z m -1.46875,-5.265625 L 15.5,-26.375 1.71875,-2.9375 -28.296875,-20.578125 Z m 0,0"
           id="path251" /></g><g
         id="glyph-42-1"><path
           d="m 17.875,-40.0625 c -0.07422,0.117187 -0.152344,0.21875 -0.234375,0.3125 -0.07422,0.08594 -0.148437,0.183594 -0.21875,0.296875 -0.136719,0.230469 -0.230469,0.921875 -0.28125,2.078125 -0.04297,1.15625 -0.167969,2.585937 -0.375,4.28125 -0.210937,1.6875 -0.605469,3.523437 -1.1875,5.5 -0.574219,1.96875 -1.414062,3.890625 -2.515625,5.765625 -1.460937,2.480469 -3.167969,4.667969 -5.125,6.5625 -1.949219,1.886719 -4.089844,3.320312 -6.421875,4.296875 -2.320313,0.96875 -4.757813,1.386719 -7.3125,1.25 -2.550781,-0.132813 -5.140625,-0.972656 -7.765625,-2.515625 -2.582031,-1.519531 -4.554688,-3.363281 -5.921875,-5.53125 -1.375,-2.164063 -2.210938,-4.507813 -2.515625,-7.03125 -0.3125,-2.53125 -0.132813,-5.117188 0.53125,-7.765625 0.65625,-2.65625 1.714844,-5.222656 3.171875,-7.703125 1.167969,-1.988281 2.386719,-3.703125 3.65625,-5.140625 1.261719,-1.4375 2.429687,-2.65625 3.5,-3.65625 1.0625,-1.007813 1.953125,-1.769531 2.671875,-2.28125 0.71875,-0.519531 1.125,-0.863281 1.21875,-1.03125 0.117187,-0.1875 0.117187,-0.40625 0,-0.65625 -0.113281,-0.257813 -0.203125,-0.460938 -0.265625,-0.609375 l 1.21875,-0.46875 4.40625,8.75 -0.765625,0.34375 c -0.113281,-0.0625 -0.234375,-0.117188 -0.359375,-0.171875 -0.125,-0.05078 -0.28125,-0.101563 -0.46875,-0.15625 -0.46875,-0.175781 -1.128906,-0.03906 -1.984375,0.40625 -0.863281,0.4375 -1.78125,1.074219 -2.75,1.90625 -0.96875,0.824219 -1.90625,1.746094 -2.8125,2.765625 -0.90625,1.011719 -1.644531,2 -2.21875,2.96875 -0.96875,1.648437 -1.660156,3.359375 -2.078125,5.140625 -0.425781,1.773437 -0.507813,3.480469 -0.25,5.125 0.25,1.648437 0.835937,3.1875 1.75,4.625 0.90625,1.429687 2.203125,2.632812 3.890625,3.609375 1.6875,1 3.382812,1.554687 5.078125,1.65625 1.699219,0.105469 3.320312,-0.132813 4.859375,-0.71875 1.550781,-0.59375 3.003906,-1.5 4.359375,-2.71875 1.363281,-1.226563 2.53125,-2.664063 3.5,-4.3125 0.726563,-1.238281 1.347656,-2.628906 1.859375,-4.171875 0.507813,-1.550781 0.867188,-3.023438 1.078125,-4.421875 0.207031,-1.40625 0.253906,-2.648438 0.140625,-3.734375 -0.105469,-1.09375 -0.40625,-1.789063 -0.90625,-2.09375 C 9.75,-39.46875 9.457031,-39.53125 9.15625,-39.5 l 0.03125,-1.078125 8.484375,-0.21875 z m 0,0"
           id="path254" /></g><g
         id="glyph-43-0"><path
           d="m -18.875,-36.25 -7.203125,18.21875 25.0625,9.875 L 6.1875,-26.375 Z m -2.265625,-4.984375 32.375,12.78125 L 1.25,-3.171875 -31.125,-15.953125 Z m 0,0"
           id="path257" /></g><g
         id="glyph-43-1"><path
           d="m -2.96875,-30.265625 -13.859375,0.65625 L -7.421875,-19 Z M -0.625,-1.78125 c 0.136719,-0.582031 0.039062,-1.117188 -0.296875,-1.609375 -0.34375,-0.5 -0.75,-1.019531 -1.21875,-1.5625 l -20,-21.40625 c -0.425781,-0.507813 -0.820313,-0.96875 -1.1875,-1.375 -0.375,-0.414063 -0.734375,-0.691406 -1.078125,-0.828125 -0.414063,-0.15625 -0.765625,-0.117188 -1.046875,0.109375 -0.289063,0.21875 -0.550781,0.480469 -0.78125,0.78125 l -1.125,-0.4375 L -23.125,-38.8125 -22,-38.375 c -0.03125,0.34375 -0.03125,0.695312 0,1.046875 0.03125,0.34375 0.277344,0.605469 0.734375,0.78125 0.34375,0.136719 0.714844,0.199219 1.109375,0.1875 0.398437,-0.0078 0.921875,-0.05469 1.578125,-0.140625 l 30.953125,-3 c 0.539063,-0.01953 0.988281,-0.164063 1.34375,-0.4375 0.351563,-0.28125 0.722656,-0.613281 1.109375,-1 l 1.140625,0.453125 -4.390625,11.140625 -1.140625,-0.453125 c 0.07031,-0.175781 0.09375,-0.410156 0.0625,-0.703125 -0.02344,-0.300781 -0.164062,-0.503906 -0.421875,-0.609375 -0.417969,-0.164063 -1.03125,-0.21875 -1.84375,-0.15625 l -5.625,0.5625 -6.078125,15.4375 3.578125,4.0625 c 0.726563,0.761719 1.28125,1.21875 1.65625,1.375 0.457031,0.179687 0.84375,-0.128906 1.15625,-0.921875 l 1.140625,0.453125 -3.546875,8.96875 z m 0,0"
           id="path260" /></g></g></defs><g
     inkscape:label="Camada 1"
     inkscape:groupmode="layer"
     id="layer1"
     transform="translate(83.046336,26.000423)"><g
       id="g800"
       transform="matrix(0.35277778,0,0,0.35277778,-114.33813,-43.662278)"><path
         fill-rule="evenodd"
         fill="#231f20"
         fill-opacity="1"
         d="m 435,152.46484 c 131.12109,0 238.06641,106.94532 238.06641,238.07032 0,131.12109 -106.94532,238.0664 -238.06641,238.0664 -131.12109,0 -238.06641,-106.94531 -238.06641,-238.0664 0,-131.125 106.94532,-238.07032 238.06641,-238.07032 m 0,-4.6875 c 133.70703,0 242.75781,109.05078 242.75781,242.75782 0,133.70703 -109.05078,242.75781 -242.75781,242.75781 -133.70703,0 -242.75781,-109.05078 -242.75781,-242.75781 0,-133.70704 109.05078,-242.75782 242.75781,-242.75782"
         id="path267" /><path
         fill-rule="evenodd"
         fill="#231f20"
         fill-opacity="1"
         d="m 509.90625,370.20312 c -4.27344,1.07422 -10.20703,2.15625 -15.19141,2.67969 4.48047,2.2461 10.12891,4.41406 14.55078,5.89063 -0.14453,-2.70313 0.0352,-5.86719 0.64063,-8.57032 m -22.24219,1.76563 c 9.69531,-1.11719 19.6875,-2.46094 29.03125,-5.16406 0.13672,0.84765 -0.13672,0.50781 0,1.35547 -1.22656,0.3125 -2.375,0.63281 -3.58984,0.95312 0.16015,3.21484 -0.54297,7.09375 -1.58594,10.30859 0.73047,0.21875 1.33984,0.56641 2.08984,0.76954 -0.16406,0.6289 -0.0312,0.57812 -0.19531,1.21093 -5.14844,-1.16406 -20.46484,-6.35547 -25.75,-9.43359"
         id="path269" /><path
         fill-rule="evenodd"
         fill="#231f20"
         fill-opacity="1"
         d="m 487.83984,531.44922 c 9.46875,-0.77344 17.71875,-0.72266 26.3125,3.80859 14.64063,9.24219 16.60547,29.07813 17.88282,44.80078 -0.13672,11.25391 -20.47266,7.82813 -26.05079,3.55078 -9.23437,-23.84375 -24.14843,-52.30078 -55.07421,-57.71875 0.82031,-1.14843 0.92968,-9.66406 3.28906,-9.30078 11.96484,2.42578 24.02734,7.42969 33.64062,14.85938 m -32.98828,-17.23047 c 11.22656,2.03125 22.45313,5.54687 33.6836,14.38281 37.65625,-3.90234 44.17578,21.61719 46.24609,51.34766 0.49609,12.35547 -19.64453,15 -31.31641,5.46484 -12.43359,-32.28125 -27.78125,-52.75 -54.07812,-57.17578 0.30469,-2.55078 0.60547,-5.09766 0.91015,-7.64453 1.51954,-2.125 3.03516,-4.25 4.55469,-6.375"
         id="path271" /><path
         fill-rule="evenodd"
         fill="#231f20"
         fill-opacity="1"
         d="m 374.71094,577.70703 c 22.16797,24.12109 37.15234,32.47266 71.29297,25.375 0.74609,-13.89453 -5.88672,-23.71094 -14.04688,-34.40234 -20.96484,-25.21875 -53.09375,-47.88282 -84.65234,-56.40235 -2.05469,3.89844 -4.19141,7.7461 -6.17188,11.6836 -8.03515,-0.0391 -15.30469,1.05859 -22.79297,4.25 0.0703,2.08984 0.14063,4.17968 0.21485,6.26953 21.89062,8.73437 40.33593,26.28125 56.15625,43.22656 m -59.57032,-51.5 c 0.11719,3.47266 0.23829,6.94531 0.35938,10.41797 26.83594,10.26172 49.46875,33.99219 71.5,59.64453 18.5,14.35547 39.46094,15.82422 61.79687,10.05859 7.40625,-34.84375 -58.01171,-86.63281 -103.11718,-97.72656 -2.03516,4.07031 -4.42969,8.14453 -6.46875,12.21485 -8.02344,-0.11719 -16.04688,1.67968 -24.07032,5.39062"
         id="path273" /><path
         fill-rule="evenodd"
         fill="#231f20"
         fill-opacity="1"
         d="m 420.05469,553.15234 c 21.52734,-5.86718 42.54297,-7.90234 65.03125,-6.10547 1.19531,1.55469 0.95703,2.39454 2.15625,3.95313 -23.69922,-2.27734 -44.21094,-0.71875 -65.03125,4.66797 -0.83985,-0.95703 -1.32032,-1.55469 -2.15625,-2.51563"
         id="path275" /><path
         fill-rule="evenodd"
         fill="#231f20"
         fill-opacity="1"
         d="m 438.89062,577.08203 c 21.19141,-6.98047 36.69141,-9.92187 59.23829,-9.29687 1.28125,1.49218 1.08203,2.34375 2.36328,3.83203 -23.78907,-1.03907 -38.44532,2.11718 -58.96094,8.58203 -0.88672,-0.91406 -1.75391,-2.20313 -2.64063,-3.11719"
         id="path277" /><path
         fill-rule="evenodd"
         fill="#231f20"
         fill-opacity="1"
         d="m 447.39453,604.46094 c 22.25781,-1.57032 42.25391,-7.91797 62.88672,-17.03907 0.61328,-1.86718 -3.12109,-1.14062 -2.50391,-3.00781 -21.62109,9.52735 -38.10156,14.30469 -59.53515,16.60156 -0.47657,1.17969 -0.3711,2.26563 -0.84766,3.44532"
         id="path279" /><path
         fill-rule="evenodd"
         fill="#231f20"
         fill-opacity="1"
         d="m 427.23828,328.48828 c 4.21484,0 7.65234,3.4375 7.65234,7.65234 0,4.21485 -3.4375,7.64844 -7.65234,7.64844 -4.21484,0 -7.65234,-3.43359 -7.65234,-7.64844 0,-4.21484 3.4375,-7.65234 7.65234,-7.65234 m 0,-3.12891 c 5.9375,0 10.77734,4.84375 10.77734,10.78125 0,5.9336 -4.83984,10.77735 -10.77734,10.77735 -5.9375,0 -10.77734,-4.84375 -10.77734,-10.77735 0,-5.9375 4.83984,-10.78125 10.77734,-10.78125"
         id="path281" /><path
         fill-rule="evenodd"
         fill="#231f20"
         fill-opacity="1"
         d="m 450.90234,388.43359 c 4.44532,2.39844 12.63282,8.25 17.25,3.66016 -7.94922,0.37109 -10.1289,-8.39453 -6.12109,-14.4375 3.42969,-5.07031 7.39453,-10.88281 8.26562,-16.96875 -7.16015,-0.33594 -13.41796,-1.55859 -20.13281,-4.04297 -3.46875,7.96094 -9.70703,12.85156 -10.92969,21.77734 -2.35546,9.98829 0.33204,28.89844 14.30469,29.76172 2.91406,0.0352 4.34375,-1.22265 6.33203,-3.1875 -2.79297,-0.57812 -4.97265,-2.08203 -6.53906,-4.39843 -2.16406,-3.66797 -2.05469,-8.03907 -2.42969,-12.16407 m -3.54297,-34.6875 c -2.15625,11.01563 -11.85546,10.89844 -11.85546,33.05469 -0.67969,19.30078 19.03125,35.47656 30.53906,15.08984 -7.1875,1.19532 -11.01953,-1.4375 -11.4961,-7.90625 11.45704,6.4961 17.46485,1.69141 19.40235,-7.18359 -8.26563,5.38672 -13.29688,-0.12109 -9.70313,-6.82812 4.08203,-6.22657 8.62891,-10.66016 9.70313,-20.83985 -8.86328,0.1211 -17.72656,-1.67578 -26.58985,-5.38672"
         id="path283" /><path
         fill-rule="evenodd"
         fill="#231f20"
         fill-opacity="1"
         d="m 429.52734,374.64844 c -6.03515,2.16797 -10.21484,5.99609 -10.44531,11.60937 -0.18359,4.7461 2.8125,11.72656 8.70313,17.64063 0.30859,-0.27344 0.62109,-0.54297 0.92968,-0.8125 -4.91797,-5.625 -7.16015,-12.79297 -6.96484,-16.59766 0.40625,-4.05469 4.41406,-8.3125 9.29297,-9.71094 z m 0,0"
         id="path285" /><path
         fill-rule="evenodd"
         fill="#231f20"
         fill-opacity="1"
         d="m 429.09766,326.42187 c -5.03125,-0.96093 -0.44532,-0.1914 -6.33985,0.23047 -5.1914,-7.50781 -7.36719,-24.57031 2.57422,-29.29687 4.48047,-1.77735 8.79297,-0.0937 10.32422,4.39844 2.14062,7.55468 -1.20313,18.83984 -6.55859,24.66796 m 0.91406,-32.76171 c 8.74609,1.0039 10.76562,9.57421 8.63281,20.0664 -1.33594,6.55469 -4.60937,11.86328 -8.00781,14.84766 -0.39453,0.23437 -1.92969,-1.22266 -4.46094,-0.78906 -3.38672,0.0156 -4.51172,2.05078 -5.02734,1.50781 -3.40625,-3.3125 -6.29297,-10.5 -5.92188,-18.25391 0.5,-10.44922 6.04297,-18.3789 14.78516,-17.3789"
         id="path287" /><path
         fill-rule="evenodd"
         fill="#231f20"
         fill-opacity="1"
         d="m 433.10156,280.23437 c -16.32031,0.14844 -26.85547,16.57032 -27.17187,31.7461 -0.0274,3.96094 0.63672,7.86328 2.10156,11.55078 l 3.36719,8.12891 c -4.21485,-2.11329 -8.40625,-5.01563 -13.1836,-5.42188 -4.1289,0.27734 -5.71484,2.92578 -6.30078,6.78906 -0.0625,2.22657 0.3125,4.21875 1.20703,6.26953 1.60547,-2.93359 4.04297,-4.90234 6.75782,-5.1875 4.83984,-0.34375 7.63281,2.91797 9.375,7.1875 2.67578,7.83204 2.47265,23.53516 13.28125,23.26954 8.03906,-0.79297 10.08203,-5.71094 13.10546,-12.71094 -3.91796,-1.96094 -7.65625,-4.28125 -11.42968,-6.51172 2.66797,0.20703 9.99218,-0.85938 11.37109,-7.32422 2.44531,0.67969 6.76563,1.89844 6.59766,0.0898 -0.62891,-8.03515 1.24609,-15.58984 4.98828,-22.69531 2.73437,-5.46875 5.47265,-11.23828 5.89453,-17.41797 0.0508,-11.02343 -10.02734,-17.07422 -19.96094,-17.76172 m 12.91016,62.125 c -2.19531,-9.61718 0.12109,-18.40234 3.9414,-25.51953 5.45704,-10.82031 9.41016,-21.39453 2.8125,-30.20703 -15.84375,-17.65234 -45.16015,-11.40625 -49.91015,23.82813 -0.3125,5.2539 0.6875,10.50781 2.4375,14.63672 -13.75391,-7.53907 -22.66406,7.82421 -11.44531,21.20312 2.5664,-12.07031 11.57031,-12.32031 13.51171,0.1875 1.875,11.07031 6.94141,22.20313 13.13282,21.20313 12.26562,0.52734 15.27343,-7.75782 18.95312,-16.32422 -4.5039,-1.4375 -6.57031,-2.87891 -10.32031,-5.06641 4.58203,-1.64844 4.48828,-3.625 6.94141,-6.56641 3.1289,0.875 6.8164,1.75 9.94531,2.625"
         id="path289" /><path
         fill-rule="evenodd"
         fill="#231f20"
         fill-opacity="1"
         d="m 413.51172,223.64062 c 0,1.03907 0.13672,1.94141 0.13672,2.98047 -51.4336,6.82422 -82.77735,30.96875 -93.1875,68.87891 -14.17969,51.63672 29.32031,107.35547 31.25781,173.66797 25.11328,-1 49.97266,0.32031 74.34375,4.15625 1.76953,-21.09766 -6.60156,-39.86719 2.72656,-57.86328 1.33985,0.74218 0.8711,0.65234 2.21094,1.39843 -8.56641,16.21875 0.33594,35.72657 -2.20313,60.03516 -26.0625,-4.96875 -52.29296,-5.60547 -79.92187,-4.69141 0.76172,-60.26171 -46.3125,-128.14062 -31.28906,-177.625 12.20703,-40.21093 44.32031,-64.46875 95.92578,-70.9375"
         id="path291" /><path
         fill-rule="evenodd"
         fill="#231f20"
         fill-opacity="1"
         d="m 411.79687,376.36328 -0.5625,4.15234 c -16.79687,16.00391 -35.05468,29.83204 -56.90234,37.78907 3.48438,13.30078 6.01953,26.69531 6.4375,40.92578 23.15234,-0.92578 31.48047,-0.12891 53.95313,3.40625 0.97656,-18.80469 -4.34375,-39.94531 4.51953,-57.86328 1.23437,0.68359 1.51953,1.82422 2.08203,2.75781 -8.16016,16.01562 -1.53516,37.60156 -3.57813,58.81641 -24.03125,-4.58204 -34.46093,-4.7461 -59.9375,-3.90235 0.19532,-15.26562 -2.58984,-30.14062 -7.05078,-46.16797 19.9336,-4.41015 46.08985,-26.57422 61.03906,-39.91406 m 2.64063,-141.46094 c -46.10547,6.67578 -73.88281,28.53907 -83.33203,62.94922 -9.24219,33.64844 8.5,69.80078 20.33594,109.69531 13.35937,-2.49218 48.35156,-31.42578 63.10156,-44.54687 0.1875,0.64453 2.27344,1.50391 2.45703,2.15234 -12.22656,9.08203 -41.78125,40.14063 -67.74219,46.26563 -11.90234,-41.0625 -30.9375,-82.44141 -21.1914,-114.54688 11.05078,-36.41406 39.63671,-58.64453 85.73828,-65.07812 z m 0,0"
         id="path293" /><path
         fill-rule="evenodd"
         fill="#231f20"
         fill-opacity="1"
         d="m 358.89844,381.28906 c 2.78125,2.125 5.17187,1.8711 8.35547,0.35938 7.28906,-3.74219 7.32812,-4.17578 14.14062,-0.1875 1.28125,-1.87891 1.97266,-4.38282 2.03906,-6.85157 2.59375,2.66016 3.27344,8.83985 3.1211,12.45704 -4.20703,2.82421 -8.2461,6.10937 -12.38282,9.02734 -0.23437,-1.05469 -0.875,-3.09375 -1.42578,-4.00391 -2.52734,-2.75781 -4.52734,-2.91406 -8.1289,-2.89453 -3.64453,0.37891 -7.94532,1.72266 -11.25782,-0.6289 -0.72656,-0.63672 -1.14453,-1.22266 -1.58203,-2.07813 -2.17578,-5.36719 -0.0937,-12.48828 1.58985,-17.83594 1.16406,-3.9414 1.30078,-7.74609 0.14062,-11.70703 3.77344,1.57031 3.91406,6.02344 4.14453,9.52735 3.5625,-1.14844 6.08985,-1.23047 7.47266,1.04687 -5.5625,-0.21875 -9.22656,4.41406 -8.5,9.59375 0.43359,1.89844 0.98437,2.84375 2.27344,4.17578 m 12.30859,19.35938 c 0.95703,-8.80078 -3.35937,-9.08203 -9.67969,-7.84766 -12.78515,1.92188 -17.08593,-6.9375 -11.15234,-25.05859 1.83203,-5.9336 0.41016,-10.21094 -1.80469,-14.58594 6.58203,-0.19922 11.28125,2.30859 11.64063,9.89062 5.57422,-0.76562 9.05468,2.11329 9.32812,9.45313 -5.86719,-4.69141 -11.79297,0.32812 -9.37109,5.48437 4.21094,6.32422 10.63672,-7.08203 19.86719,-0.98828 0.92578,-1.70703 0.125,-4.40625 -1.12891,-7.04297 6.14844,0.32032 10.86328,6.05079 10.66797,17.85157 -6.39453,4.16406 -11.97266,8.67968 -18.36719,12.84375"
         id="path295" /><path
         fill-rule="evenodd"
         fill="#231f20"
         fill-opacity="1"
         d="m 474.41406,214.10547 c 1.53125,-5.86719 2.8711,-9.20703 8.60938,-14.62891 1.48828,0.29688 1.23828,0.98828 2.72265,1.28516 -5.0664,4.625 -7.38281,8.33594 -8.68359,14.28906 0,0 -2.20313,-0.5 -2.64844,-0.94531"
         id="path297" /><path
         fill-rule="evenodd"
         fill="#231f20"
         fill-opacity="1"
         d="m 335.94922,494.05469 c 0.0898,-0.86719 1.21094,-1.3125 1.28515,-2.16797 4.53907,-40.91797 -5.78515,-72.0586 -22.01171,-110.31641 -7.60938,-20.37109 -11.77344,-38.27344 -12.61719,-60.10937 3.72265,-80.46485 67.0039,-132.16797 149.39844,-129.01563 16.22265,1.67969 30.76953,5.42578 45.91796,11.58203 2.9961,-5.57812 6.21875,-11.03125 9.23047,-16.60547 -17.94922,-8.45312 -35.6289,-11.60937 -55.3125,-12.65625 -93.96093,0.30079 -160.96875,61.02735 -163.9414,148.375 0.76562,20.35938 3.9414,36.92579 11.11718,55.9336 20.91797,42.47265 25.51954,63.30469 23.75391,108.1289 4.74219,2.41797 8.44141,4.42579 13.17969,6.85157 m -16.38281,-4.97657 c 5.54296,2.83204 11.08593,5.66407 16.6289,8.4961 l 4.46875,-8.73828 c 6.42188,-83.30078 -33.57031,-98.4961 -34.92969,-167.07032 5.21875,-105.62109 112.35938,-149.6289 193.63672,-113.77343 3.27344,-6.39453 8.80078,-15.60938 12.07422,-22.00391 -80.13672,-41.45703 -223.40625,7.30859 -226.67969,137.11719 1.60938,74.84375 39.62891,73.75 34.80079,165.97265"
         id="path299" /><path
         fill-rule="evenodd"
         fill="#231f20"
         fill-opacity="1"
         d="m 487.51172,224.40625 c 31.46484,11.85156 50.3789,33.38672 48.97265,81.09766 13.11719,10.32421 29.19141,19.80859 36.17188,37.80859 -35.12891,14.51562 -81.19922,12.55469 -137.23828,-2.80078 0.5625,-1.30469 0.84375,-1.77344 1.40234,-3.08203 43.3125,13.29687 87.29297,16.86718 131.35156,4.76562 -7.5664,-16.47265 -21.05859,-24.01562 -35.32812,-34.73047 1.58594,-37.625 -9.39063,-67.0039 -47.29297,-80.53906 1.30859,-1.39844 0.65625,-1.12109 1.96094,-2.51953"
         id="path301" /><path
         fill-rule="evenodd"
         fill="#231f20"
         fill-opacity="1"
         d="m 429.74609,345.54687 c 29.03125,18.42579 95.08985,19.34375 146.97266,4.04688 10.25,-3.47266 3.14844,-12.32031 -7.08203,-10.87891 -0.92578,-1.51953 -1.85547,-2.27734 -2.78516,-3.79297 21.12891,-1.18359 22.89844,14.41797 11.13281,17.96094 -49.97656,16.67578 -131.88281,12.55078 -151.77734,-6.32422 1.17969,-0.50781 2.35938,-0.50781 3.53906,-1.01172"
         id="path303" /><path
         fill-rule="evenodd"
         fill="#231f20"
         fill-opacity="1"
         d="m 529.69922,302.58203 -16.13672,3.9375 16.88672,0.75391 z m 0,0"
         id="path305" /><path
         fill-rule="evenodd"
         fill="#231f20"
         fill-opacity="1"
         d="m 467.19531,259.40625 c -13.07031,-21.89063 -37.61328,-28.63672 -17,-48.03516 -4.39062,-1.01562 -8.75,-0.0234 -11.50781,3.07422 -5.32031,-2.14062 -9.83984,-0.6914 -13.92969,4.33985 -12.4414,1.76953 -11.4414,10.28125 -5.14062,21.44531 -5.45703,7.05859 -4.75,12.85156 3.60156,17.1914 -0.81641,2.71485 -1.25781,4.59375 -2.07422,7.30469 -6.72266,-0.0469 -10.375,5.63672 -13.39062,10.79688 -9.72266,-13.2461 -18.63282,-12.31641 -27.83594,-0.125 -4.28516,5.03125 -10.39453,6.44531 -18.5625,5.88281 4.40234,9.25 17.75781,14.69141 28.13672,4.08984 8.83203,-8.30468 12.66797,-9.76953 16.13672,-6.51562 4.23437,6.54687 -0.5586,17.34375 -11.16407,19.90234 -0.27343,1.53516 -0.54297,3.07422 -0.8164,4.61328 3.80078,2.71485 7.50781,5.70313 11.30468,8.41797 -0.35937,1.35938 -0.72265,2.16016 -1.08203,3.51563 -4.70703,-3.52735 -9.3164,-6.77735 -14.02343,-10.30469 0.45312,-2.89453 0.90625,-5.79297 1.35937,-8.68359 8.28125,-2.78516 13.64844,-7.11329 11.5625,-14.84766 -1.10547,-1.82422 -5.30078,1.92187 -11.83594,7.51953 -10.28125,11.77734 -31.17578,4.48828 -35.99609,-12.57812 9.29687,2.52343 16.80859,2.20312 22.15625,-3.4336 9.58594,-11.28515 19.35156,-14.41015 30.04297,-3.71484 3.51953,-3.83203 6.69922,-7.01563 11.20312,-7.88281 0.17969,-1.26563 0.45313,-1.14063 0.63282,-2.41016 -7.48438,-5.24609 -8.30079,-11.44922 -3.61329,-18.82813 -6.8125,-13.92187 -4.33593,-22.72265 7.6836,-24.71093 4.58984,-4.96485 9.92578,-6.74219 14.76172,-4.78516 5.49218,-2.90625 10.3164,-6.22266 19.07422,0.45703 -26.5,17.28125 3.5039,27.09375 11.92968,47.3125 -0.72265,0.36328 -0.89062,0.62891 -1.61328,0.99219"
         id="path307" /><path
         fill-rule="evenodd"
         fill="#231f20"
         fill-opacity="1"
         d="m 444.94141,228.74219 c 14.39843,-15.45703 29.83203,-19.36328 46.40625,-10.58594 -1.8086,2.98437 -3.6211,5.97266 -5.42969,8.95703 4.96875,7.89453 9.14844,16.25 10.85547,26.05078 0.72656,1.94531 0.36328,3.75391 -1.08594,5.42969 -1.89844,1.44531 -3.79688,2.89453 -5.69922,4.33984 -4.36719,1.9961 -8.76562,-4.09375 -8.51562,-7.54687 -2.32813,-1.875 -4.14844,-2.72656 -5.15235,-3.375 1.54688,7.92969 10.01563,11.0625 12.17578,20.11719 6,-7.86719 12.31641,-11.17579 21.03516,0.0312 6.22656,6.28906 8.93359,5.93359 12.75391,19.8125 -5.15625,0.72265 -10.00782,1.44921 -15.16407,2.17187 -0.18359,-2.98437 -0.66797,-5.97266 -0.84765,-8.95703 -1.8125,-0.99609 -3.41797,-2.39844 -5.22657,-3.39453 -1.71875,2.44531 -3.64062,5.29687 -5.35937,7.73828 4.82031,5.70312 10.28516,11.35547 16.10547,17.40625 5.05859,5.12109 13.86328,9.13672 20.22656,15.26172 -5.42578,0.99219 -11.36328,1.88672 -16.79297,2.88281 -0.72265,-1.44922 -1.44531,-2.89453 -2.17187,-4.34375 -6.92188,-1.99219 -13.32813,-6.41016 -17.53516,-11.94141 -5.12891,-3.34765 -9.62891,-5.8789 -15.02734,-9.22656 -4.51172,5.17578 -15.83985,2.28516 -28.4961,7.8711 0.35938,-1.44922 0.72266,-2.89454 1.08594,-4.34375 10.49609,-3.83594 24.85547,-2.97657 26.59375,-8.14063 5.60938,3.62109 12.03516,7.13672 17.64063,10.75391 4.58984,5.58593 9.79687,9.72656 17.91015,11.5 0.63672,1.35547 1.26953,2.71484 1.90235,4.07031 2.07812,-0.45313 4.46484,-0.90234 6.54687,-1.35547 -3.49219,-3.01562 -7.72656,-5.26172 -11.13672,-7.57422 -10.17969,-8.13672 -14.20703,-16.05078 -21.70312,-22.21094 3.07812,-4.52343 5.84765,-8.84375 8.92187,-13.36718 3.53125,2.17187 6.85547,4.34375 10.38281,6.51562 0,2.26172 0.20313,4.52344 0.20313,6.78516 2.35156,-0.27344 4.70312,-0.54297 7.05469,-0.81641 -0.8125,-2.26172 -1.62891,-4.52344 -2.44141,-6.78515 -3.62109,-3.70704 -7.23828,-7.41797 -10.85547,-11.125 -6.02734,-6.76954 -10.33594,-0.66407 -15.43359,7.08593 -1.62891,-0.54297 -1.9336,-0.77734 -3.5625,-1.32031 1.78906,-12.18359 -16.6836,-15.78906 -11.94141,-32.35937 3.79688,2.71093 7.59766,5.42578 11.39844,8.14062 1.59766,8.53516 4.64453,8.33594 8.68359,2.16797 -1.61718,-11.15625 -6.5039,-19.53516 -11.66797,-27.67969 1.44532,-2.4414 2.89063,-4.88281 4.33985,-7.32812 -16.14453,-6.82032 -28.09766,-0.0352 -38.53516,11.67187 -0.8125,-0.99609 -1.6289,-1.99219 -2.4414,-2.98437"
         id="path309" /><path
         fill-rule="evenodd"
         fill="#231f20"
         fill-opacity="1"
         d="m 453.08203,238.78125 c 5.57031,-7.55078 11.625,-12.21094 18.45313,-12.21094 0.58593,-2.57422 1.55468,-4.92969 4.34375,-6.24219 -1.15235,3.3086 -1.35938,5.78907 -0.91797,8.6836 -8.66016,0.32031 -14.55469,5.22656 -19.60157,12.3164 -0.99218,-1.08203 -1.28515,-1.46093 -2.27734,-2.54687"
         id="path311" /><path
         fill-rule="evenodd"
         fill="#231f20"
         fill-opacity="1"
         d="m 439.09375,371.71094 c -12.9375,-17.17188 -33.06641,2.67578 -29.45703,15.44922 3.14844,13.95312 11.43359,19.69921 15.80469,26.94531 4.8125,8.36719 13.55078,4.95703 16.5664,-3.07031 l -2.65234,-2.07032 c -1.50391,3.51563 -4.14844,6.6875 -6.71094,6.85157 -2.88672,-0.0977 -4.13672,-2.73047 -5.5,-4.83204 -7.26172,-10.21093 -11.92187,-12.27343 -14.62109,-24.8125 -1.48828,-8.85546 5.53906,-16.51953 13.26953,-18.21875 5.71875,0.11329 8.05859,2.3086 11.74609,6.77344 -0.11719,0.48047 -0.21875,1 -0.3125,1.55469 l 0.35156,0.0977 1.05079,-2.09766 c 0.12109,-0.85156 0.26562,-1.70703 0.46484,-2.57031"
         id="path313" /><path
         fill-rule="evenodd"
         fill="#231f20"
         fill-opacity="1"
         d="m 353.22656,470.51953 c -0.79687,13.21094 -17.98437,13.11328 -19.40625,29.81641 1.32031,10.60156 9.82422,12.875 15.08985,10.41797 4.43359,2.03906 17.125,7.66796 21.55859,9.70312 -2.04297,-5.51172 -3.13281,-10.54687 2.51562,-12.21484 2.875,7.30468 9.12891,10.94531 17.75,12.5 -1.79296,-2.99219 -2.17968,-7.35157 -0.14453,-10.34375 5.22657,7.76562 13.25782,11.91797 23.27344,11.0625 -2.07812,-2.94532 -3.98437,-5.46094 -3.00391,-9.55078 4.07422,6.82421 11.94922,9.38671 18.89454,8.54687 -1.97266,-2.93359 -3.98047,-5.66406 -2.51172,-8.98047 9.69531,10.42188 18.4375,8.98047 23.35156,-3.59375 -4.80859,1.20703 -8.49219,-0.32812 -8.33203,-7.90234 0.58984,-5.29297 11.48828,-7.58203 14.23047,-16.3125 2.02734,-6.26563 -0.39063,-7.8086 -1.22657,-12.36719 7.74219,-3 10.04297,-9.98437 8.6211,-16.80469 -6.24219,7.39453 -11.48438,5.09375 -10.85547,-2.58984 -0.0273,-4.66406 12.96875,-9.75391 12.65234,-25.58594 -0.29687,-8.08203 -4.46093,-13.45312 -9.19531,-17.52734 -4.13672,-0.19531 -6.23828,-0.39453 -8.5,-1.28906 l -0.63281,1.16015 c 1.5625,0.87891 3.1914,1.42578 5.91015,1.4336 4.76954,4.42968 8.40235,8.04687 9.20313,15.04687 0.58594,7.01953 -1.96484,12.30469 -6.52344,17.43359 -4.37109,4.77735 -7.23047,6.83594 -5.71484,13.82422 0.98437,2.94141 2.29687,4.8711 5.49609,5.62891 1.95313,0.22656 3.35938,-0.18359 5.09766,-0.92188 -0.70313,3.08594 -2.77344,5.33204 -5.55469,6.78516 l -3.57031,1.5 c 1.11328,5.64453 4.01562,9.98047 0.7539,15.62109 -3.96875,5.69532 -13.39062,8.35547 -13.30468,16.45704 0.5625,4.50781 1.51953,8.21484 6.35937,9.60546 -6.33984,10.08985 -14.39062,0.22266 -18.4375,-5.42578 -2.48437,2.95313 -4.32031,7.91016 -2.77344,11.60157 -6.84375,-0.74219 -10.57421,-6.07032 -14.25,-11.02735 -2.19921,4.57422 -3.5625,7.07422 -1.73828,12.02735 -9.09765,-1.10547 -13.07812,-6.70704 -17.88281,-13.57422 -2.48047,4.04687 -4.625,6.69922 -4.28125,11.66406 -6.60156,-2.3125 -8.83203,-5.83594 -11.37891,-11.96875 -5.73046,1.85937 -9.59375,3.69531 -9.0039,10.52344 -5.60156,-2.51172 -11.21875,-5.00782 -16.8086,-7.5625 -3.08984,1.32812 -5.60937,1.96484 -8.6914,-0.38672 -2.00781,-1.7461 -2.89844,-4.0625 -3.28516,-6.66016 0.44141,-3.7539 1.72266,-6.65625 4.15625,-9.53125 6.99219,-7.51953 13.01172,-8.51172 15.07422,-19.33594 24.125,-3.13281 44.30078,0.47657 68.35547,3.8711 3.13281,0.29687 4.10547,-1.80078 3.80078,-6.56641 0.51172,-12.63281 -2.22266,-26.91015 -2.70312,-39.68359 0.41406,-1.19141 2.85937,-12.27344 3.71484,-12.04688 6.90234,-3.05859 8.65234,-0.72656 10.80859,-5.24609 l -0.59765,-0.42578 c -1.48438,4.13672 -3.46875,6.29687 -11.19532,4.36719 -1.55859,4.1914 -2.39843,9.09765 -3.95703,13.28906 0.42188,13.22656 3.21094,27.29687 2.59375,40.45703 0.61328,3.11328 0.3125,4.77734 -2.45703,4.46094 -26.64453,-5.21094 -49.16015,-5.69532 -71.34375,-3.37891"
         id="path315" /><path
         fill-rule="evenodd"
         fill="#231f20"
         fill-opacity="1"
         d="m 513.60156,408.70703 c -1.75781,8.47266 1.4961,9.30078 4.55078,7.74609 2.14844,-1.77343 3.89453,-2.82812 6.21875,-1.98828 -4.21484,1.69922 -4.32031,5.36719 -7.58984,5.66016 -7.01563,1.16016 -7.12109,-8.10156 -3.17969,-11.41797"
         id="path317" /><path
         fill-rule="evenodd"
         fill="#231f20"
         fill-opacity="1"
         d="m 518.76562,361.8125 c 4.23047,14.12891 10.28125,27.78125 19.01563,40.12891 4.46875,6.3164 3.76562,10.76953 -1.60547,12.33984 -2.89062,0.9375 -6.08203,1.69922 -9.01172,2.59766 -6.36719,2.33593 -7.04687,8.83984 -2.07031,17.51953 -0.89063,2.51172 -2.60938,4.40234 -5.16797,6.46875 l -3.31641,2.125 c 4.09375,1.125 5.92579,2.75781 5.59766,5.46875 -3.46875,2.54297 -7.09375,8.61718 -6.89062,12.49609 -0.004,5.4375 2.11718,6.87109 1.98828,13.8125 -0.50391,5.60547 -7.44922,7.99609 -16.33985,7.67969 -8.76562,-0.2461 -15.77734,-1.11719 -24.54687,-1.36719 -5.8125,-0.39453 -10.24219,3.73047 -13.07813,8.25781 -4.20312,8.05078 -7.64843,17.15625 -11.125,26.3086 -4.99218,10.67187 -5.60937,14.08593 -1.47265,19.3789 0.85156,0.62891 2.45312,0.38672 1.92968,-0.48437 -3.3164,-3.65235 -2.125,-10.58985 2.25782,-18.89844 0.89062,-2.71094 6.85156,-16.58203 11.23828,-24.875 3.25781,-4.74219 6.86719,-6.36328 10.375,-6.49219 8.15234,-0.12109 16.30078,1.25391 24.44922,1.13282 10.47656,0.66406 18.80859,-2.13672 19.51953,-10.27735 0.50781,-5.18359 -1.36328,-8.62109 -1.73438,-13.80469 -0.48828,-4.39062 4.66797,-10.08593 7.52735,-11.79687 0,-3.95313 -1.32422,-5.90234 -3.34766,-7.83203 2.12891,-1.46875 5.83984,-3.1875 6.37891,-6.40235 -5.4336,-10.51171 -4.79297,-13.65234 -1.19532,-15.59375 3.08985,-1.11328 5.67579,-1.34765 8.76172,-2.46093 11.10938,-4.08594 6.86328,-12.06641 2.10547,-19 -8.14062,-11.8711 -13.94531,-24.66407 -17.42969,-37.41407 -1.60546,0.4961 -1.20703,0.48829 -2.8125,0.98438"
         id="path319" /><path
         fill-rule="evenodd"
         fill="#231f20"
         fill-opacity="1"
         d="m 503.57031,440.59766 c 2.20703,1.17968 2.78125,1.69921 4.75391,1.66015 4.41406,-0.10156 6.19922,0.082 9.76562,1.14453 2.0625,0.125 2.41016,0.0547 4.15625,0.49219 0.48047,-1.86328 0.66797,-2.57031 -0.65234,-2.94922 -6.03906,-2.16015 -16.33203,0.55078 -18.02344,-0.34765"
         id="path321" /><path
         fill-rule="evenodd"
         fill="#231f20"
         fill-opacity="1"
         d="m 435,126.75781 c 145.28125,0 263.77734,118.49219 263.77734,263.77735 C 698.77734,535.81641 580.28125,654.3125 435,654.3125 289.71875,654.3125 171.22266,535.81641 171.22266,390.53516 171.22266,245.25 289.71875,126.75781 435,126.75781 m 0,11.47266 c 138.96484,0 252.30469,113.33984 252.30469,252.30469 0,138.96093 -113.33985,252.30468 -252.30469,252.30468 -138.96484,0 -252.30469,-113.34375 -252.30469,-252.30468 0,-138.96485 113.33985,-252.30469 252.30469,-252.30469"
         id="path323" /><g
         fill="#231f20"
         fill-opacity="1"
         id="g327"><use
           xlink:href="#glyph-0-1"
           x="127.6699"
           y="408.8717"
           id="use325" /></g><g
         fill="#231f20"
         fill-opacity="1"
         id="g331"><use
           xlink:href="#glyph-1-1"
           x="129.1709"
           y="356.23361"
           id="use329" /></g><g
         fill="#231f20"
         fill-opacity="1"
         id="g335"><use
           xlink:href="#glyph-2-1"
           x="139.1709"
           y="308.30139"
           id="use333" /></g><g
         fill="#231f20"
         fill-opacity="1"
         id="g339"><use
           xlink:href="#glyph-3-1"
           x="146.1748"
           y="285.00601"
           id="use337" /></g><g
         fill="#231f20"
         fill-opacity="1"
         id="g343"><use
           xlink:href="#glyph-4-1"
           x="162.6245"
           y="247.8683"
           id="use341" /></g><g
         fill="#231f20"
         fill-opacity="1"
         id="g347"><use
           xlink:href="#glyph-5-1"
           x="183.6987"
           y="213.1833"
           id="use345" /></g><g
         fill="#231f20"
         fill-opacity="1"
         id="g351"><use
           xlink:href="#glyph-6-1"
           x="212.16209"
           y="178.7653"
           id="use349" /></g><g
         fill="#231f20"
         fill-opacity="1"
         id="g355"><use
           xlink:href="#glyph-7-1"
           x="242.5195"
           y="151.3918"
           id="use353" /></g><g
         fill="#231f20"
         fill-opacity="1"
         id="g359"><use
           xlink:href="#glyph-8-1"
           x="261.65869"
           y="136.43469"
           id="use357" /></g><g
         fill="#231f20"
         fill-opacity="1"
         id="g363"><use
           xlink:href="#glyph-9-1"
           x="300.30219"
           y="114.1095"
           id="use361" /></g><g
         fill="#231f20"
         fill-opacity="1"
         id="g367"><use
           xlink:href="#glyph-10-1"
           x="337.79391"
           y="98.635399"
           id="use365" /></g><g
         fill="#231f20"
         fill-opacity="1"
         id="g371"><use
           xlink:href="#glyph-11-1"
           x="381.10791"
           y="87.815102"
           id="use369" /></g><g
         fill="#231f20"
         fill-opacity="1"
         id="g375"><use
           xlink:href="#glyph-12-1"
           x="421.72461"
           y="83.989403"
           id="use373" /></g><g
         fill="#231f20"
         fill-opacity="1"
         id="g379"><use
           xlink:href="#glyph-13-1"
           x="444.0791"
           y="83.095398"
           id="use377" /></g><g
         fill="#231f20"
         fill-opacity="1"
         id="g383"><use
           xlink:href="#glyph-14-1"
           x="488.49121"
           y="87.732597"
           id="use381" /></g><g
         fill="#231f20"
         fill-opacity="1"
         id="g387"><use
           xlink:href="#glyph-15-1"
           x="528.07422"
           y="97.946899"
           id="use385" /></g><g
         fill="#231f20"
         fill-opacity="1"
         id="g391"><use
           xlink:href="#glyph-16-1"
           x="549.21088"
           y="104.6754"
           id="use389" /></g><g
         fill="#231f20"
         fill-opacity="1"
         id="g395"><use
           xlink:href="#glyph-17-1"
           x="592.74408"
           y="126.5934"
           id="use393" /></g><g
         fill="#231f20"
         fill-opacity="1"
         id="g399"><use
           xlink:href="#glyph-18-1"
           x="626.18848"
           y="149.5753"
           id="use397" /></g><g
         fill="#231f20"
         fill-opacity="1"
         id="g403"><use
           xlink:href="#glyph-19-1"
           x="658.82129"
           y="180.4689"
           id="use401" /></g><g
         fill="#231f20"
         fill-opacity="1"
         id="g407"><use
           xlink:href="#glyph-20-1"
           x="674.01172"
           y="196.6564"
           id="use405" /></g><g
         fill="#231f20"
         fill-opacity="1"
         id="g411"><use
           xlink:href="#glyph-21-1"
           x="701.40143"
           y="236.9528"
           id="use409" /></g><g
         fill="#231f20"
         fill-opacity="1"
         id="g415"><use
           xlink:href="#glyph-22-1"
           x="719.58112"
           y="273.1442"
           id="use413" /></g><g
         fill="#231f20"
         fill-opacity="1"
         id="g419"><use
           xlink:href="#glyph-23-1"
           x="734.23438"
           y="319.6217"
           id="use417" /></g><g
         fill="#231f20"
         fill-opacity="1"
         id="g423"><use
           xlink:href="#glyph-24-1"
           x="741.05078"
           y="359.62469"
           id="use421" /></g><g
         fill="#231f20"
         fill-opacity="1"
         id="g427"><use
           xlink:href="#glyph-25-1"
           x="741.64648"
           y="404.56219"
           id="use425" /></g><g
         fill="#231f20"
         fill-opacity="1"
         id="g431"><use
           xlink:href="#glyph-26-1"
           x="107.6353"
           y="499.2135"
           id="use429" /></g><g
         fill="#231f20"
         fill-opacity="1"
         id="g435"><use
           xlink:href="#glyph-27-1"
           x="127.3691"
           y="546.37372"
           id="use433" /></g><g
         fill="#231f20"
         fill-opacity="1"
         id="g439"><use
           xlink:href="#glyph-28-1"
           x="153.8936"
           y="590.2887"
           id="use437" /></g><g
         fill="#231f20"
         fill-opacity="1"
         id="g443"><use
           xlink:href="#glyph-29-1"
           x="189.4487"
           y="632.67743"
           id="use441" /></g><g
         fill="#231f20"
         fill-opacity="1"
         id="g447"><use
           xlink:href="#glyph-30-1"
           x="234.4771"
           y="670.50452"
           id="use445" /></g><g
         fill="#231f20"
         fill-opacity="1"
         id="g451"><use
           xlink:href="#glyph-31-1"
           x="274.5762"
           y="695.3161"
           id="use449" /></g><g
         fill="#231f20"
         fill-opacity="1"
         id="g455"><use
           xlink:href="#glyph-32-1"
           x="320.7041"
           y="714.69397"
           id="use453" /></g><g
         fill="#231f20"
         fill-opacity="1"
         id="g459"><use
           xlink:href="#glyph-33-1"
           x="344.8584"
           y="722.75848"
           id="use457" /></g><g
         fill="#231f20"
         fill-opacity="1"
         id="g463"><use
           xlink:href="#glyph-34-1"
           x="395.40039"
           y="732.5387"
           id="use461" /></g><g
         fill="#231f20"
         fill-opacity="1"
         id="g467"><use
           xlink:href="#glyph-35-1"
           x="454.1514"
           y="733.71552"
           id="use465" /></g><g
         fill="#231f20"
         fill-opacity="1"
         id="g471"><use
           xlink:href="#glyph-36-1"
           x="499.87299"
           y="727.54559"
           id="use469" /></g><g
         fill="#231f20"
         fill-opacity="1"
         id="g475"><use
           xlink:href="#glyph-37-1"
           x="526.50391"
           y="721.71552"
           id="use473" /></g><g
         fill="#231f20"
         fill-opacity="1"
         id="g479"><use
           xlink:href="#glyph-38-1"
           x="571.01562"
           y="706.04358"
           id="use477" /></g><g
         fill="#231f20"
         fill-opacity="1"
         id="g483"><use
           xlink:href="#glyph-39-1"
           x="616.45508"
           y="682.22919"
           id="use481" /></g><g
         fill="#231f20"
         fill-opacity="1"
         id="g487"><use
           xlink:href="#glyph-40-1"
           x="660.92682"
           y="649.27209"
           id="use485" /></g><g
         fill="#231f20"
         fill-opacity="1"
         id="g491"><use
           xlink:href="#glyph-41-1"
           x="700.50677"
           y="606.98792"
           id="use489" /></g><g
         fill="#231f20"
         fill-opacity="1"
         id="g495"><use
           xlink:href="#glyph-42-1"
           x="717.61328"
           y="585.29462"
           id="use493" /></g><g
         fill="#231f20"
         fill-opacity="1"
         id="g499"><use
           xlink:href="#glyph-43-1"
           x="744.97559"
           y="537.53967"
           id="use497" /></g><path
         fill-rule="nonzero"
         fill="#86898f"
         fill-opacity="1"
         d="m 767.84766,451.35547 c 0,7.11328 -5.76563,12.8789 -12.87891,12.8789 -7.10938,0 -12.875,-5.76562 -12.875,-12.8789 0,-7.11328 5.76562,-12.87891 12.875,-12.87891 7.11328,0 12.87891,5.76563 12.87891,12.87891"
         id="path501" /><path
         fill-rule="nonzero"
         fill="#86898f"
         fill-opacity="1"
         d="m 125.98438,451.35547 c 0,7.11328 -5.76563,12.8789 -12.87891,12.8789 -7.10938,0 -12.875,-5.76562 -12.875,-12.8789 0,-7.11328 5.76562,-12.87891 12.875,-12.87891 7.11328,0 12.87891,5.76563 12.87891,12.87891"
         id="path503" /></g></g></svg>
